<?xml version="1.0" encoding="UTF-8"?>
<svg version="1.1" viewBox="0 0 800 600" xmlns="http://www.w3.org/2000/svg">
 <g transform="translate(259.96 441.01)">
  <g transform="matrix(.93362 -.35826 .35826 .93362 63.379 -24.002)">
   <path d="m-154.12-87.901c-3.9418-1.9109-0.30968-5.9262-3.4021-7.0654-22.813-8.4038-10.872-16.359-9.3094-21.996 1.1581-4.1788-1.2774-15.101 19.297-46.496 13.511-20.616 12.253-18.639 28.578-21.737 9.6842-1.8376 22.326 4.3678 17.456-24.407-1.5734-9.295 11.042 4.9291 18.766-4.1399 20.424-23.98 49.269-21.441 58.016-5.8809 9.6794 12.59 6.0795 30.22 16.434 42.32 20.466 23.917 3.5426 63.746 3.2955 63.87 4.4616-10.658 9.2631-4.6126 12.231-11.329 10.927-24.731 11.561-40.315 11.561-40.315 0.032-7.1548 8.069-8.9599 16.572-19.449 11.743-14.487 30.931-33.079 55.962-25.232 3.5598 2.3394 6.6695 10.827 8.1705 23.653 2.38 20.336 10.187 11.644 13.842 18.257 1.5187 2.7476-2.7846 6.7612-1.3117 9.6831 1.9687 3.9056 7.7475-2.5277 9.7543 1.5062 2.1712 4.3642 12.091-1.7465 14.07 2.9622 2.0868 4.966-1.7286 7.4941-0.3483 13.044 0.82798 3.3291 3.0956 3.5642 3.889 6.9994 1.796 7.7758 0.60027 5.9988 5.3278 11.759 3.2106 3.9117-2.538 14.647 1.1852 15.85 18.568 5.999 9.0661 20.966 1.1272 19.304-1.5339 2-2.3014 4 0 6-1.6176 10.098-9.8139 13.617-12.425 13.981-7.7608 1.0808-15.639 7.1992-22.733 7.8714-153.37 14.531-110.92 119.5-115.71 122.44 4.6422 82.979 4.6422 83.559 4.6422 83.559-3.0847-4.349-9.1434-7.685-9.129-12.876 0.1546-55.686 3.9529-104.22-23.592-147.27-48.676-76.08-126.39-66.342-122.21-74.285" fill="#808080" stroke-width="0"/>
   <g transform="matrix(.8515 0 0 1.2624 -45.458 25.842)" fill="#fafdfd">
    <path d="m-3.1137-61.863c-0.56828-0.63507-2.4958-3.1761-4.2834-5.6467-4.8739-6.7361-19.972-20.687-29.334-27.105-6.628-4.5439-9.6401-8.6111-7.7895-10.518 0.90344-0.93093 0.90038-1.7908-0.0074-2.0957-0.25128-0.0844-0.56462 0.27337-0.69632 0.79499-0.29066 1.1512-0.04554 1.2344-3.1462-1.0677-3.4654-2.5729-4.7427-5.8754-3.619-9.3569 0.75146-2.3282 1.0621-2.5966 3.6452-3.15 1.5531-0.3327 3.151-0.30162 3.5509 0.0691 1.4857 1.3771 10.433 8.5797 10.792 8.6877 0.46783 0.1407-3.7513-5.3618-4.236-5.5245-1.2231-0.41072-7.2508-7.4582-7.0521-8.2451 0.43285-1.7144 1.926-1.1468 3.8292 1.4557 2.302 3.1478 2.2313 3.0662 7.3755 8.5129 1.401 1.4834 2.9125 3.1055 3.3589 3.6047 0.9236 1.0328 1.2992 0.36724 0.60988-1.0808-0.25293-0.53132-0.25241-1.0974 0.0011-1.2579 0.71195-0.45074 3.1915 2.1025 4.1494 4.2728 0.47299 1.0715 1.1409 2.0426 1.4842 2.1579 0.34333 0.11529 1.1178 1.3013 1.7211 2.6355 0.60328 1.3342 0.84102 2.34 0.52832 2.235-0.31271-0.10499-1.3748-1.3875-2.3602-2.8501-0.98539-1.4626-1.979-2.7213-2.208-2.7972-0.66103-0.21921 2.9786 6.1195 6.1992 10.796 1.6536 2.4012 2.9291 4.9505 2.9099 5.8161-0.0319 1.4338 3.3844 8.2613 6.3985 12.788 2.284 3.4299 9.0741 16.122 9.1442 17.092 0.054184 0.75043-0.13433 0.70705-0.96591-0.22225z"/>
    <path d="m-12.622-111.25c-0.66269-1.1724-1.606-3.5102-2.0962-5.1951-2.5008-8.5948-2.9265-9.412-4.5618-8.7582-1.2529 0.50092-2.2434-1.0679-4.595-7.2774-3.0393-8.0255-3.1691-9.8282-0.46843-6.5047 0.82051 1.0097 1.6405 1.4812 1.8223 1.0477 0.31011-0.73962-1.9499-11.482-3.3222-15.791-0.34247-1.0754-1.7385-5.4039-3.1024-9.6188-2.4013-7.4211-2.6139-10.06-0.74756-9.2771 0.49375 0.20702 3.9119 7.6825 7.596 16.612 5.4552 13.223 6.8005 17.761 7.2491 24.455 0.30297 4.5206 1.0906 10.641 1.7502 13.602 1.865 8.3697 1.9294 9.2767 0.47618 6.7057z"/>
    <path d="m-4.9445-154.07c0.12962-10.583 1.623-24.984 2.6547-25.6 1.5614-0.93147 3.4368 4.2432 3.3732 9.3076-0.11098 8.8419-1.5733 14.945-3.9157 16.342-1.3552 0.80844-2.1225 0.7903-2.1122-0.0499z"/>
    <path d="m16.732-155.84c1.6029-6.4445 2.7769-12.248 2.6088-12.896-0.16805-0.64853-0.68637 0.16322-1.1519 1.8033-0.46548 1.6404-1.6118 3.6432-2.5474 4.4508-0.93558 0.80759-1.5962 1.9359-1.4679 2.5074 0.12822 0.57147-0.6938 5.1299-1.8267 10.13-2.3662 10.443-2.3805 11.18-0.15539 8.0268 0.89438-1.2674 2.9376-7.5772 4.5405-14.022z"/>
    <path d="m33.164-34.104c-0.01779-1.3694 0.10582-6.4784 0.27467-11.353 0.46036-13.292-1.4009-46.17-3.6162-63.878-1.5684-12.537-1.3294-20.637 0.61802-20.945 0.95072-0.15062 1.3578-1.1854 0.99199-2.5217-0.10124-0.36988-0.44756-0.27581-0.76959 0.20905-0.71073 1.0701-0.61239 1.432-1.2623-4.6448-0.72631-6.7915 0.12503-12.119 2.412-15.093 1.5294-1.9892 1.8317-1.979 3.5479 0.11921 1.0318 1.2616 1.9159 3.0074 1.9646 3.8797 0.18115 3.2405 1.7904 21.447 1.9411 21.961 0.19628 0.66901 0.43854-10.443 0.24325-11.156-0.49277-1.8004-0.53346-16.699-0.04759-17.431 1.0584-1.5936 1.6286 0.68381 1.4621 5.8405-0.2014 6.2373-0.20238 6.0637 0.10223 18.098 0.08296 3.2774 0.16214 6.8393 0.17597 7.9154 0.0286 2.2264 0.55625 1.8296 0.85682-0.64429 0.11028-0.90775 0.37966-1.5862 0.59859-1.5077 0.61474 0.2206 0.79583 5.9344 0.30305 9.5621-0.2433 1.7911-0.32918 3.67-0.19085 4.1754 0.13833 0.50539 0.01024 2.7561-0.28464 5.0016s-0.63923 3.7061-0.76522 3.2458c-0.126-0.4603-0.11377-3.1344 0.02716-5.9424 0.14092-2.808 0.18034-5.3802 0.0876-5.7161-0.26764-0.96975-1.2334 10.525-1.6447 19.578-0.21119 4.6484-0.70555 9.0702-1.1278 10.088-0.69948 1.6857-2.0232 13.528-2.4793 22.18-0.34559 6.5564-2.5593 29.041-2.9812 30.28-0.32623 0.95808-0.41166 0.70448-0.43769-1.2994z"/>
    <path d="m75.634-84.755c0.09771-0.74674 0.67377-3.5053 1.2801-6.13 1.6532-7.1564 2.4023-25.293 1.4554-35.236-0.67039-7.0401 0.29072-11.407 2.4855-11.293 1.0715 0.0556 1.6135-0.44781 1.3209-1.2269-0.08097-0.21566-0.47465-0.2146-0.87481 2e-3 -0.88316 0.47874-0.80472 0.6896-1.0068-2.7067-0.22587-3.7958 1.1792-6.5676 3.9808-7.8533 1.8736-0.85977 2.2093-0.81053 3.94 0.57794 1.0405 0.83479 1.8751 1.9114 1.8545 2.3925-0.07639 1.7872 0.15303 11.914 0.27672 12.215 0.16113 0.39194 1.3844-5.6114 1.2282-6.0274-0.39415-1.0497 0.83907-9.1519 1.4428-9.4792 1.3152-0.71295 1.7546 0.60714 1.1267 3.3854-0.75949 3.3604-0.74568 3.2659-1.4392 9.8496-0.18888 1.793-0.40638 3.7401-0.48332 4.3269-0.15923 1.214 0.46232 1.0747 1.0093-0.22619 0.2007-0.47736 0.55883-0.80709 0.79584-0.73276 0.66553 0.20878 0.37683 3.34-0.48315 5.2402-0.42459 0.93813-0.68145 1.9468-0.5708 2.2414 0.11064 0.29465-0.22509 1.4992-0.74613 2.6769-0.52102 1.1776-1.0298 1.9216-1.1305 1.6532-0.10079-0.26836 0.1423-1.7198 0.54017-3.2253 0.39788-1.5056 0.6625-2.8977 0.58806-3.0936-0.21478-0.5657-2.2765 5.5413-3.5113 10.402-0.63405 2.4955-1.5639 4.827-2.1214 5.3189-0.92347 0.81489-3.4136 7.0591-4.6639 11.695-0.94742 3.5129-5.3417 15.412-5.9177 16.024-0.44545 0.47348-0.5188 0.32331-0.37582-0.76942z"/>
    <path d="m101.78-119.85c0.38696-1.1226 1.3606-3.1106 2.1638-4.4178 4.0968-6.6682 4.3859-7.4267 3.0983-8.1287-0.98642-0.53785-0.52413-2.1088 2.1445-7.2873 3.449-6.6929 4.5193-7.8301 3.8619-4.1032-0.19974 1.1323-0.0594 1.9504 0.31174 1.818 0.63336-0.22584 6.2164-7.9866 8.2072-11.408 0.49681-0.85393 2.487-4.3026 4.4226-7.6638 3.408-5.9179 4.9624-7.5972 5.4654-5.9047 0.13306 0.44778-2.7657 7.071-6.4417 14.718-5.4433 11.324-7.5932 14.861-11.585 19.062-2.696 2.8367-6.1445 6.9274-7.6634 9.0905-4.2944 6.1158-4.8333 6.6873-3.9848 4.2255z"/>
    <path d="m132.95-139.73c6.7601-6.0853 16.663-13.493 17.603-13.169 1.4235 0.49116-0.84539 4.7508-4.0811 7.6617-5.6491 5.0822-10.289 7.6722-12.425 6.9353-1.2355-0.42629-1.6342-0.94516-1.0976-1.4283z"/>
    <path d="m145.66-126.41c4.931-2.696 9.2275-5.3023 9.5476-5.7918 0.32016-0.48948-0.4701-0.35949-1.7558 0.28848-1.2858 0.64816-3.1648 1.0567-4.1755 0.90784-1.0106-0.14958-2.0771 0.0715-2.3699 0.48966-0.29274 0.41816-3.614 2.5316-7.3805 4.6966-7.8669 4.5219-8.3404 4.9422-5.1576 4.5775 1.2794-0.14657 6.3606-2.4723 11.292-5.1683z"/>
    <path d="m77.477-44.538c0.85622-0.81029 4.1522-3.7075 7.3244-6.4382 8.6489-7.4453 28.44-27.85 38.451-39.643 7.0877-8.3495 12.336-12.914 13.572-11.804 0.60343 0.54195 1.4752 0.20817 2.1245-0.81331 0.17973-0.28274-0.0649-0.45731-0.54354-0.38789-1.0564 0.15317-1.2326 0.42932 2.2617-3.5446 3.9053-4.4413 7.7283-6.9836 10.831-7.2031 2.0751-0.14678 2.2303 0.0594 1.8212 2.4197-0.24598 1.4191-0.87713 3.0227-1.4025 3.5637-1.9518 2.0095-12.602 13.692-12.846 14.091-0.31801 0.52012 6.8362-5.7986 7.1829-6.344 0.87483-1.3763 10.272-10.091 10.994-10.195 1.5733-0.22811 0.43826 1.4775-2.9108 4.3741-4.0509 3.5036-3.9416 3.4017-11.387 10.62-2.0276 1.966-4.2371 4.0954-4.91 4.732-1.3922 1.3172-0.85935 1.4353 0.86534 0.19189 0.63284-0.45625 1.2057-0.67342 1.2731-0.4826 0.18915 0.53585-3.3263 3.9875-5.8831 5.7764-1.2624 0.8832-2.4961 1.9219-2.7417 2.3082-0.24556 0.38633-1.737 1.6139-3.3142 2.7279s-2.6847 1.7376-2.461 1.3857c0.22365-0.35186 1.9207-1.903 3.7713-3.447 1.8505-1.544 3.4978-3.0177 3.6605-3.275 0.47-0.74274-7.3133 5.3202-13.256 10.327-3.0516 2.5706-6.1113 4.8215-6.9804 5.1351-1.4396 0.51956-9.6341 6.5481-15.348 11.291-4.3297 3.5941-19.728 15.239-20.737 15.681-0.78008 0.34255-0.66542 0.13809 0.5875-1.0476z"/>
   </g>
  </g>
  <g transform="translate(25.532 -39.458)">
   <path d="m42.891-269.36c-2.757-5.4321 4.4901-6.6332 2.0339-10.508-18.12-28.585 1.432-26.897 7.7352-31.615 4.6726-3.4975 10.908-17.322 59.007-33.419 31.586-10.571 28.599-9.5246 48.989 1.1397 12.096 6.3264 20.875 23.831 38.992-11.263 5.8522-11.336 8.0678 14.761 23.911 11.637 41.893-8.26 71.393 19.193 68.287 43.41 0.33405 21.825-17.971 37.682-16.499 59.559 2.9094 43.241-48.067 71.532-48.438 71.453 13.568-7.628 13.897 2.9837 22.617-1.6897 32.111-17.208 45.503-33.409 45.503-33.409 5.8652-7.6604 16.132-2.7111 33.986-6.6934 24.657-5.5 60.806-9.0303 81.807 20.857 1.9898 5.5651-1.5231 17.35-10.332 32.419-13.967 23.892 1.6606 21.244 0.27227 31.482-0.57679 4.254-8.557 4.8781-9.326 9.2802-1.0279 5.8842 10.539 3.9248 9.4481 9.9795-1.18 6.5504 14.656 8.4877 12.985 15.243-1.7627 7.1247-7.9984 6.5708-11.01 13.717-1.8066 4.2869 0.48358 6.4832-1.4473 10.854-4.3706 9.8946-4.2313 6.9603-3.7507 17.202 0.32635 6.9551-14.713 13.563-11.618 18.047 15.433 22.362-7.1619 30.299-14.497 21.709-3.3085 0.83419-5.7782 2.3254-4.8892 6.447-9.9988 9.4637-21.837 6.22-24.992 4.3722-9.37-5.4854-22.98-5.6636-31.29-11.023-179.69-115.85-218.77 33.329-226.41 32.377-62.533 93.136-63.006 93.766-63.006 93.766 0.168-7.32-3.745-16.098 0.501-21.663 45.545-59.702 89.245-108.59 94.185-178.46 8.72-123.48-84.265-179.63-73.222-184.58" stroke-width="0"/>
   <g transform="matrix(.93191 .72988 -1.0287 1.3565 76.092 -60.97)" fill="#fafdfd">
    <path d="m-3.1137-61.863c-0.56828-0.63507-2.4958-3.1761-4.2834-5.6467-4.8739-6.7361-19.972-20.687-29.334-27.105-6.628-4.5439-9.6401-8.6111-7.7895-10.518 0.90344-0.93093 0.90038-1.7908-0.0074-2.0957-0.25128-0.0844-0.56462 0.27337-0.69632 0.79499-0.29066 1.1512-0.04554 1.2344-3.1462-1.0677-3.4654-2.5729-4.7427-5.8754-3.619-9.3569 0.75146-2.3282 1.0621-2.5966 3.6452-3.15 1.5531-0.3327 3.151-0.30162 3.5509 0.0691 1.4857 1.3771 10.433 8.5797 10.792 8.6877 0.46783 0.1407-3.7513-5.3618-4.236-5.5245-1.2231-0.41072-7.2508-7.4582-7.0521-8.2451 0.43285-1.7144 1.926-1.1468 3.8292 1.4557 2.302 3.1478 2.2313 3.0662 7.3755 8.5129 1.401 1.4834 2.9125 3.1055 3.3589 3.6047 0.9236 1.0328 1.2992 0.36724 0.60988-1.0808-0.25293-0.53132-0.25241-1.0974 0.0011-1.2579 0.71195-0.45074 3.1915 2.1025 4.1494 4.2728 0.47299 1.0715 1.1409 2.0426 1.4842 2.1579 0.34333 0.11529 1.1178 1.3013 1.7211 2.6355 0.60328 1.3342 0.84102 2.34 0.52832 2.235-0.31271-0.10499-1.3748-1.3875-2.3602-2.8501-0.98539-1.4626-1.979-2.7213-2.208-2.7972-0.66103-0.21921 2.9786 6.1195 6.1992 10.796 1.6536 2.4012 2.9291 4.9505 2.9099 5.8161-0.0319 1.4338 3.3844 8.2613 6.3985 12.788 2.284 3.4299 9.0741 16.122 9.1442 17.092 0.054184 0.75043-0.13433 0.70705-0.96591-0.22225z"/>
    <path d="m-12.622-111.25c-0.66269-1.1724-1.606-3.5102-2.0962-5.1951-2.5008-8.5948-2.9265-9.412-4.5618-8.7582-1.2529 0.50092-2.2434-1.0679-4.595-7.2774-3.0393-8.0255-3.1691-9.8282-0.46843-6.5047 0.82051 1.0097 1.6405 1.4812 1.8223 1.0477 0.31011-0.73962-1.9499-11.482-3.3222-15.791-0.34247-1.0754-1.7385-5.4039-3.1024-9.6188-2.4013-7.4211-2.6139-10.06-0.74756-9.2771 0.49375 0.20702 3.9119 7.6825 7.596 16.612 5.4552 13.223 6.8005 17.761 7.2491 24.455 0.30297 4.5206 1.0906 10.641 1.7502 13.602 1.865 8.3697 1.9294 9.2767 0.47618 6.7057z"/>
    <path d="m-4.9445-154.07c0.12962-10.583 1.623-24.984 2.6547-25.6 1.5614-0.93147 3.4368 4.2432 3.3732 9.3076-0.11098 8.8419-1.5733 14.945-3.9157 16.342-1.3552 0.80844-2.1225 0.7903-2.1122-0.0499z"/>
    <path d="m16.732-155.84c1.6029-6.4445 2.7769-12.248 2.6088-12.896-0.16805-0.64853-0.68637 0.16322-1.1519 1.8033-0.46548 1.6404-1.6118 3.6432-2.5474 4.4508-0.93558 0.80759-1.5962 1.9359-1.4679 2.5074 0.12822 0.57147-0.6938 5.1299-1.8267 10.13-2.3662 10.443-2.3805 11.18-0.15539 8.0268 0.89438-1.2674 2.9376-7.5772 4.5405-14.022z"/>
    <path d="m33.164-34.104c-0.01779-1.3694 0.10582-6.4784 0.27467-11.353 0.46036-13.292-1.4009-46.17-3.6162-63.878-1.5684-12.537-1.3294-20.637 0.61802-20.945 0.95072-0.15062 1.3578-1.1854 0.99199-2.5217-0.10124-0.36988-0.44756-0.27581-0.76959 0.20905-0.71073 1.0701-0.61239 1.432-1.2623-4.6448-0.72631-6.7915 0.12503-12.119 2.412-15.093 1.5294-1.9892 1.8317-1.979 3.5479 0.11921 1.0318 1.2616 1.9159 3.0074 1.9646 3.8797 0.18115 3.2405 1.7904 21.447 1.9411 21.961 0.19628 0.66901 0.43854-10.443 0.24325-11.156-0.49277-1.8004-0.53346-16.699-0.04759-17.431 1.0584-1.5936 1.6286 0.68381 1.4621 5.8405-0.2014 6.2373-0.20238 6.0637 0.10223 18.098 0.08296 3.2774 0.16214 6.8393 0.17597 7.9154 0.0286 2.2264 0.55625 1.8296 0.85682-0.64429 0.11028-0.90775 0.37966-1.5862 0.59859-1.5077 0.61474 0.2206 0.79583 5.9344 0.30305 9.5621-0.2433 1.7911-0.32918 3.67-0.19085 4.1754 0.13833 0.50539 0.01024 2.7561-0.28464 5.0016s-0.63923 3.7061-0.76522 3.2458c-0.126-0.4603-0.11377-3.1344 0.02716-5.9424 0.14092-2.808 0.18034-5.3802 0.0876-5.7161-0.26764-0.96975-1.2334 10.525-1.6447 19.578-0.21119 4.6484-0.70555 9.0702-1.1278 10.088-0.69948 1.6857-2.0232 13.528-2.4793 22.18-0.34559 6.5564-2.5593 29.041-2.9812 30.28-0.32623 0.95808-0.41166 0.70448-0.43769-1.2994z"/>
    <path d="m75.634-84.755c0.09771-0.74674 0.67377-3.5053 1.2801-6.13 1.6532-7.1564 2.4023-25.293 1.4554-35.236-0.67039-7.0401 0.29072-11.407 2.4855-11.293 1.0715 0.0556 1.6135-0.44781 1.3209-1.2269-0.08097-0.21566-0.47465-0.2146-0.87481 2e-3 -0.88316 0.47874-0.80472 0.6896-1.0068-2.7067-0.22587-3.7958 1.1792-6.5676 3.9808-7.8533 1.8736-0.85977 2.2093-0.81053 3.94 0.57794 1.0405 0.83479 1.8751 1.9114 1.8545 2.3925-0.07639 1.7872 0.15303 11.914 0.27672 12.215 0.16113 0.39194 1.3844-5.6114 1.2282-6.0274-0.39415-1.0497 0.83907-9.1519 1.4428-9.4792 1.3152-0.71295 1.7546 0.60714 1.1267 3.3854-0.75949 3.3604-0.74568 3.2659-1.4392 9.8496-0.18888 1.793-0.40638 3.7401-0.48332 4.3269-0.15923 1.214 0.46232 1.0747 1.0093-0.22619 0.2007-0.47736 0.55883-0.80709 0.79584-0.73276 0.66553 0.20878 0.37683 3.34-0.48315 5.2402-0.42459 0.93813-0.68145 1.9468-0.5708 2.2414 0.11064 0.29465-0.22509 1.4992-0.74613 2.6769-0.52102 1.1776-1.0298 1.9216-1.1305 1.6532-0.10079-0.26836 0.1423-1.7198 0.54017-3.2253 0.39788-1.5056 0.6625-2.8977 0.58806-3.0936-0.21478-0.5657-2.2765 5.5413-3.5113 10.402-0.63405 2.4955-1.5639 4.827-2.1214 5.3189-0.92347 0.81489-3.4136 7.0591-4.6639 11.695-0.94742 3.5129-5.3417 15.412-5.9177 16.024-0.44545 0.47348-0.5188 0.32331-0.37582-0.76942z"/>
    <path d="m101.78-119.85c0.38696-1.1226 1.3606-3.1106 2.1638-4.4178 4.0968-6.6682 4.3859-7.4267 3.0983-8.1287-0.98642-0.53785-0.52413-2.1088 2.1445-7.2873 3.449-6.6929 4.5193-7.8301 3.8619-4.1032-0.19974 1.1323-0.0594 1.9504 0.31174 1.818 0.63336-0.22584 6.2164-7.9866 8.2072-11.408 0.49681-0.85393 2.487-4.3026 4.4226-7.6638 3.408-5.9179 4.9624-7.5972 5.4654-5.9047 0.13306 0.44778-2.7657 7.071-6.4417 14.718-5.4433 11.324-7.5932 14.861-11.585 19.062-2.696 2.8367-6.1445 6.9274-7.6634 9.0905-4.2944 6.1158-4.8333 6.6873-3.9848 4.2255z"/>
    <path d="m132.95-139.73c6.7601-6.0853 16.663-13.493 17.603-13.169 1.4235 0.49116-0.84539 4.7508-4.0811 7.6617-5.6491 5.0822-10.289 7.6722-12.425 6.9353-1.2355-0.42629-1.6342-0.94516-1.0976-1.4283z"/>
    <path d="m145.66-126.41c4.931-2.696 9.2275-5.3023 9.5476-5.7918 0.32016-0.48948-0.4701-0.35949-1.7558 0.28848-1.2858 0.64816-3.1648 1.0567-4.1755 0.90784-1.0106-0.14958-2.0771 0.0715-2.3699 0.48966-0.29274 0.41816-3.614 2.5316-7.3805 4.6966-7.8669 4.5219-8.3404 4.9422-5.1576 4.5775 1.2794-0.14657 6.3606-2.4723 11.292-5.1683z"/>
    <path d="m77.477-44.538c0.85622-0.81029 4.1522-3.7075 7.3244-6.4382 8.6489-7.4453 28.44-27.85 38.451-39.643 7.0877-8.3495 12.336-12.914 13.572-11.804 0.60343 0.54195 1.4752 0.20817 2.1245-0.81331 0.17973-0.28274-0.0649-0.45731-0.54354-0.38789-1.0564 0.15317-1.2326 0.42932 2.2617-3.5446 3.9053-4.4413 7.7283-6.9836 10.831-7.2031 2.0751-0.14678 2.2303 0.0594 1.8212 2.4197-0.24598 1.4191-0.87713 3.0227-1.4025 3.5637-1.9518 2.0095-12.602 13.692-12.846 14.091-0.31801 0.52012 6.8362-5.7986 7.1829-6.344 0.87483-1.3763 10.272-10.091 10.994-10.195 1.5733-0.22811 0.43826 1.4775-2.9108 4.3741-4.0509 3.5036-3.9416 3.4017-11.387 10.62-2.0276 1.966-4.2371 4.0954-4.91 4.732-1.3922 1.3172-0.85935 1.4353 0.86534 0.19189 0.63284-0.45625 1.2057-0.67342 1.2731-0.4826 0.18915 0.53585-3.3263 3.9875-5.8831 5.7764-1.2624 0.8832-2.4961 1.9219-2.7417 2.3082-0.24556 0.38633-1.737 1.6139-3.3142 2.7279s-2.6847 1.7376-2.461 1.3857c0.22365-0.35186 1.9207-1.903 3.7713-3.447 1.8505-1.544 3.4978-3.0177 3.6605-3.275 0.47-0.74274-7.3133 5.3202-13.256 10.327-3.0516 2.5706-6.1113 4.8215-6.9804 5.1351-1.4396 0.51956-9.6341 6.5481-15.348 11.291-4.3297 3.5941-19.728 15.239-20.737 15.681-0.78008 0.34255-0.66542 0.13809 0.5875-1.0476z"/>
   </g>
  </g>
  <g transform="matrix(-1 0 0 1 93.063 -25.532)">
   <path d="m-150.02 96.859c-2.9988 1.4612-5.7492-0.67287-7.7582 0.5226-14.82 8.819-18.856 2.518-23.771 1.0669-3.6438-1.0757-14.796-1.5014-38.632-14.77-15.653-8.7131-14.141-7.8941-12.233-15.447 1.1318-4.4807 10.823-9.1567-18.096-10.953-9.3415-0.58028 7.9956-4.1509 1.6405-8.7617-16.804-12.191-5.7844-24.445 11.675-26.144 14.903-2.5111 30.658 1.4654 45.294-1.4073 28.929-5.6781 61.906 7.1455 61.95 7.2703-8.8443-3.4023-1.6426-4.6752-7.1697-6.8874-20.352-8.1455-35.038-10.547-35.038-10.547-6.8202-0.98966-6.1482-4.7465-13.627-9.8911-10.329-7.1051-22.358-18.022-7.4082-27.885 3.294-1.236 12.323-1.4368 25.013-0.34346 20.122 1.7336 14.151-2.8618 21.552-3.5567 3.0753-0.28869 5.6242 2.1384 8.8522 1.8934 4.3149-0.32736-0.10408-3.7289 4.3446-4.0554 4.813-0.35324 1.9362-5.5198 7.0206-5.742 5.3622-0.23435 6.6385 1.777 12.347 1.9309 3.4246 0.09231 4.3248-0.86613 7.8403-0.74426 7.9577 0.27586 5.9052 0.55584 12.812-0.72373 4.6907-0.869 13.225 3.106 15.483 1.6437 11.26-7.2927 22.715-1.1011 18.763 2.1401 1.452 0.94277 3.1324 1.5507 5.7274 0.81821 9.157 2.0836 10.074 6.1438 9.6431 7.3342-1.2811 3.5374 2.2117 7.8128 0.73908 11.004-31.834 68.974 81.018 64.748 82.392 67.241 80.592 9.2879 81.146 9.367 81.146 9.367-5.0706 0.75438-10.061 2.946-15.011 2.2318-53.109-7.658-98.303-15.935-147.61-9.774-87.13 10.887-100.99 46.16-107.33 43.253" fill="#b9b9b9" stroke-width="0"/>
   <g transform="matrix(.25375 -.37194 1.2051 .17215 -9.064 64.905)" fill="#fafdfd">
    <path d="m-3.1137-61.863c-0.56828-0.63507-2.4958-3.1761-4.2834-5.6467-4.8739-6.7361-19.972-20.687-29.334-27.105-6.628-4.5439-9.6401-8.6111-7.7895-10.518 0.90344-0.93093 0.90038-1.7908-0.0074-2.0957-0.25128-0.0844-0.56462 0.27337-0.69632 0.79499-0.29066 1.1512-0.04554 1.2344-3.1462-1.0677-3.4654-2.5729-4.7427-5.8754-3.619-9.3569 0.75146-2.3282 1.0621-2.5966 3.6452-3.15 1.5531-0.3327 3.151-0.30162 3.5509 0.0691 1.4857 1.3771 10.433 8.5797 10.792 8.6877 0.46783 0.1407-3.7513-5.3618-4.236-5.5245-1.2231-0.41072-7.2508-7.4582-7.0521-8.2451 0.43285-1.7144 1.926-1.1468 3.8292 1.4557 2.302 3.1478 2.2313 3.0662 7.3755 8.5129 1.401 1.4834 2.9125 3.1055 3.3589 3.6047 0.9236 1.0328 1.2992 0.36724 0.60988-1.0808-0.25293-0.53132-0.25241-1.0974 0.0011-1.2579 0.71195-0.45074 3.1915 2.1025 4.1494 4.2728 0.47299 1.0715 1.1409 2.0426 1.4842 2.1579 0.34333 0.11529 1.1178 1.3013 1.7211 2.6355 0.60328 1.3342 0.84102 2.34 0.52832 2.235-0.31271-0.10499-1.3748-1.3875-2.3602-2.8501-0.98539-1.4626-1.979-2.7213-2.208-2.7972-0.66103-0.21921 2.9786 6.1195 6.1992 10.796 1.6536 2.4012 2.9291 4.9505 2.9099 5.8161-0.0319 1.4338 3.3844 8.2613 6.3985 12.788 2.284 3.4299 9.0741 16.122 9.1442 17.092 0.054184 0.75043-0.13433 0.70705-0.96591-0.22225z"/>
    <path d="m-12.622-111.25c-0.66269-1.1724-1.606-3.5102-2.0962-5.1951-2.5008-8.5948-2.9265-9.412-4.5618-8.7582-1.2529 0.50092-2.2434-1.0679-4.595-7.2774-3.0393-8.0255-3.1691-9.8282-0.46843-6.5047 0.82051 1.0097 1.6405 1.4812 1.8223 1.0477 0.31011-0.73962-1.9499-11.482-3.3222-15.791-0.34247-1.0754-1.7385-5.4039-3.1024-9.6188-2.4013-7.4211-2.6139-10.06-0.74756-9.2771 0.49375 0.20702 3.9119 7.6825 7.596 16.612 5.4552 13.223 6.8005 17.761 7.2491 24.455 0.30297 4.5206 1.0906 10.641 1.7502 13.602 1.865 8.3697 1.9294 9.2767 0.47618 6.7057z"/>
    <path d="m-4.9445-154.07c0.12962-10.583 1.623-24.984 2.6547-25.6 1.5614-0.93147 3.4368 4.2432 3.3732 9.3076-0.11098 8.8419-1.5733 14.945-3.9157 16.342-1.3552 0.80844-2.1225 0.7903-2.1122-0.0499z"/>
    <path d="m16.732-155.84c1.6029-6.4445 2.7769-12.248 2.6088-12.896-0.16805-0.64853-0.68637 0.16322-1.1519 1.8033-0.46548 1.6404-1.6118 3.6432-2.5474 4.4508-0.93558 0.80759-1.5962 1.9359-1.4679 2.5074 0.12822 0.57147-0.6938 5.1299-1.8267 10.13-2.3662 10.443-2.3805 11.18-0.15539 8.0268 0.89438-1.2674 2.9376-7.5772 4.5405-14.022z"/>
    <path d="m33.164-34.104c-0.01779-1.3694 0.10582-6.4784 0.27467-11.353 0.46036-13.292-1.4009-46.17-3.6162-63.878-1.5684-12.537-1.3294-20.637 0.61802-20.945 0.95072-0.15062 1.3578-1.1854 0.99199-2.5217-0.10124-0.36988-0.44756-0.27581-0.76959 0.20905-0.71073 1.0701-0.61239 1.432-1.2623-4.6448-0.72631-6.7915 0.12503-12.119 2.412-15.093 1.5294-1.9892 1.8317-1.979 3.5479 0.11921 1.0318 1.2616 1.9159 3.0074 1.9646 3.8797 0.18115 3.2405 1.7904 21.447 1.9411 21.961 0.19628 0.66901 0.43854-10.443 0.24325-11.156-0.49277-1.8004-0.53346-16.699-0.04759-17.431 1.0584-1.5936 1.6286 0.68381 1.4621 5.8405-0.2014 6.2373-0.20238 6.0637 0.10223 18.098 0.08296 3.2774 0.16214 6.8393 0.17597 7.9154 0.0286 2.2264 0.55625 1.8296 0.85682-0.64429 0.11028-0.90775 0.37966-1.5862 0.59859-1.5077 0.61474 0.2206 0.79583 5.9344 0.30305 9.5621-0.2433 1.7911-0.32918 3.67-0.19085 4.1754 0.13833 0.50539 0.01024 2.7561-0.28464 5.0016s-0.63923 3.7061-0.76522 3.2458c-0.126-0.4603-0.11377-3.1344 0.02716-5.9424 0.14092-2.808 0.18034-5.3802 0.0876-5.7161-0.26764-0.96975-1.2334 10.525-1.6447 19.578-0.21119 4.6484-0.70555 9.0702-1.1278 10.088-0.69948 1.6857-2.0232 13.528-2.4793 22.18-0.34559 6.5564-2.5593 29.041-2.9812 30.28-0.32623 0.95808-0.41166 0.70448-0.43769-1.2994z"/>
    <path d="m75.634-84.755c0.09771-0.74674 0.67377-3.5053 1.2801-6.13 1.6532-7.1564 2.4023-25.293 1.4554-35.236-0.67039-7.0401 0.29072-11.407 2.4855-11.293 1.0715 0.0556 1.6135-0.44781 1.3209-1.2269-0.08097-0.21566-0.47465-0.2146-0.87481 2e-3 -0.88316 0.47874-0.80472 0.6896-1.0068-2.7067-0.22587-3.7958 1.1792-6.5676 3.9808-7.8533 1.8736-0.85977 2.2093-0.81053 3.94 0.57794 1.0405 0.83479 1.8751 1.9114 1.8545 2.3925-0.07639 1.7872 0.15303 11.914 0.27672 12.215 0.16113 0.39194 1.3844-5.6114 1.2282-6.0274-0.39415-1.0497 0.83907-9.1519 1.4428-9.4792 1.3152-0.71295 1.7546 0.60714 1.1267 3.3854-0.75949 3.3604-0.74568 3.2659-1.4392 9.8496-0.18888 1.793-0.40638 3.7401-0.48332 4.3269-0.15923 1.214 0.46232 1.0747 1.0093-0.22619 0.2007-0.47736 0.55883-0.80709 0.79584-0.73276 0.66553 0.20878 0.37683 3.34-0.48315 5.2402-0.42459 0.93813-0.68145 1.9468-0.5708 2.2414 0.11064 0.29465-0.22509 1.4992-0.74613 2.6769-0.52102 1.1776-1.0298 1.9216-1.1305 1.6532-0.10079-0.26836 0.1423-1.7198 0.54017-3.2253 0.39788-1.5056 0.6625-2.8977 0.58806-3.0936-0.21478-0.5657-2.2765 5.5413-3.5113 10.402-0.63405 2.4955-1.5639 4.827-2.1214 5.3189-0.92347 0.81489-3.4136 7.0591-4.6639 11.695-0.94742 3.5129-5.3417 15.412-5.9177 16.024-0.44545 0.47348-0.5188 0.32331-0.37582-0.76942z"/>
    <path d="m101.78-119.85c0.38696-1.1226 1.3606-3.1106 2.1638-4.4178 4.0968-6.6682 4.3859-7.4267 3.0983-8.1287-0.98642-0.53785-0.52413-2.1088 2.1445-7.2873 3.449-6.6929 4.5193-7.8301 3.8619-4.1032-0.19974 1.1323-0.0594 1.9504 0.31174 1.818 0.63336-0.22584 6.2164-7.9866 8.2072-11.408 0.49681-0.85393 2.487-4.3026 4.4226-7.6638 3.408-5.9179 4.9624-7.5972 5.4654-5.9047 0.13306 0.44778-2.7657 7.071-6.4417 14.718-5.4433 11.324-7.5932 14.861-11.585 19.062-2.696 2.8367-6.1445 6.9274-7.6634 9.0905-4.2944 6.1158-4.8333 6.6873-3.9848 4.2255z"/>
    <path d="m132.95-139.73c6.7601-6.0853 16.663-13.493 17.603-13.169 1.4235 0.49116-0.84539 4.7508-4.0811 7.6617-5.6491 5.0822-10.289 7.6722-12.425 6.9353-1.2355-0.42629-1.6342-0.94516-1.0976-1.4283z"/>
    <path d="m145.66-126.41c4.931-2.696 9.2275-5.3023 9.5476-5.7918 0.32016-0.48948-0.4701-0.35949-1.7558 0.28848-1.2858 0.64816-3.1648 1.0567-4.1755 0.90784-1.0106-0.14958-2.0771 0.0715-2.3699 0.48966-0.29274 0.41816-3.614 2.5316-7.3805 4.6966-7.8669 4.5219-8.3404 4.9422-5.1576 4.5775 1.2794-0.14657 6.3606-2.4723 11.292-5.1683z"/>
    <path d="m77.477-44.538c0.85622-0.81029 4.1522-3.7075 7.3244-6.4382 8.6489-7.4453 28.44-27.85 38.451-39.643 7.0877-8.3495 12.336-12.914 13.572-11.804 0.60343 0.54195 1.4752 0.20817 2.1245-0.81331 0.17973-0.28274-0.0649-0.45731-0.54354-0.38789-1.0564 0.15317-1.2326 0.42932 2.2617-3.5446 3.9053-4.4413 7.7283-6.9836 10.831-7.2031 2.0751-0.14678 2.2303 0.0594 1.8212 2.4197-0.24598 1.4191-0.87713 3.0227-1.4025 3.5637-1.9518 2.0095-12.602 13.692-12.846 14.091-0.31801 0.52012 6.8362-5.7986 7.1829-6.344 0.87483-1.3763 10.272-10.091 10.994-10.195 1.5733-0.22811 0.43826 1.4775-2.9108 4.3741-4.0509 3.5036-3.9416 3.4017-11.387 10.62-2.0276 1.966-4.2371 4.0954-4.91 4.732-1.3922 1.3172-0.85935 1.4353 0.86534 0.19189 0.63284-0.45625 1.2057-0.67342 1.2731-0.4826 0.18915 0.53585-3.3263 3.9875-5.8831 5.7764-1.2624 0.8832-2.4961 1.9219-2.7417 2.3082-0.24556 0.38633-1.737 1.6139-3.3142 2.7279s-2.6847 1.7376-2.461 1.3857c0.22365-0.35186 1.9207-1.903 3.7713-3.447 1.8505-1.544 3.4978-3.0177 3.6605-3.275 0.47-0.74274-7.3133 5.3202-13.256 10.327-3.0516 2.5706-6.1113 4.8215-6.9804 5.1351-1.4396 0.51956-9.6341 6.5481-15.348 11.291-4.3297 3.5941-19.728 15.239-20.737 15.681-0.78008 0.34255-0.66542 0.13809 0.5875-1.0476z"/>
   </g>
  </g>
 </g>
</svg>
