<?xml version="1.0" encoding="UTF-8" standalone="no"?>
<!-- Created with Inkscape (http://www.inkscape.org/) -->

<svg
   xmlns:dc="http://purl.org/dc/elements/1.1/"
   xmlns:cc="http://creativecommons.org/ns#"
   xmlns:rdf="http://www.w3.org/1999/02/22-rdf-syntax-ns#"
   xmlns:svg="http://www.w3.org/2000/svg"
   xmlns="http://www.w3.org/2000/svg"
   xmlns:sodipodi="http://sodipodi.sourceforge.net/DTD/sodipodi-0.dtd"
   xmlns:inkscape="http://www.inkscape.org/namespaces/inkscape"
   width="744.09448819"
   height="1052.3622047"
   id="svg2"
   version="1.1"
   inkscape:version="0.48.4 r9939"
   sodipodi:docname="New document 1">
  <defs
     id="defs4">
    <inkscape:path-effect
       effect="skeletal"
       id="path-effect2995"
       is_visible="true"
       pattern="M 0,5 C 0,2.24 2.24,0 5,0 7.76,0 10,2.24 10,5 10,7.76 7.76,10 5,10 2.24,10 0,7.76 0,5 z"
       copytype="single_stretched"
       prop_scale="1"
       scale_y_rel="false"
       spacing="0"
       normal_offset="0"
       tang_offset="0"
       prop_units="false"
       vertical_pattern="false"
       fuse_tolerance="0" />
    <filter
       inkscape:collect="always"
       id="filter3795">
      <feGaussianBlur
         inkscape:collect="always"
         stdDeviation="1.3260548"
         id="feGaussianBlur3797" />
    </filter>
    <filter
       inkscape:collect="always"
       id="filter3827">
      <feGaussianBlur
         inkscape:collect="always"
         stdDeviation="1.6970563"
         id="feGaussianBlur3829" />
    </filter>
    <filter
       inkscape:collect="always"
       id="filter3831">
      <feGaussianBlur
         inkscape:collect="always"
         stdDeviation="1.6970563"
         id="feGaussianBlur3833" />
    </filter>
  </defs>
  <sodipodi:namedview
     id="base"
     pagecolor="#ffffff"
     bordercolor="#666666"
     borderopacity="1.0"
     inkscape:pageopacity="0.0"
     inkscape:pageshadow="2"
     inkscape:zoom="0.49497475"
     inkscape:cx="-143.18308"
     inkscape:cy="522.93527"
     inkscape:document-units="px"
     inkscape:current-layer="layer1"
     showgrid="false"
     inkscape:window-width="1366"
     inkscape:window-height="695"
     inkscape:window-x="0"
     inkscape:window-y="0"
     inkscape:window-maximized="1" />
  <metadata
     id="metadata7">
    <rdf:RDF>
      <cc:Work
         rdf:about="">
        <dc:format>image/svg+xml</dc:format>
        <dc:type
           rdf:resource="http://purl.org/dc/dcmitype/StillImage" />
        <dc:title></dc:title>
      </cc:Work>
    </rdf:RDF>
  </metadata>
  <g
     inkscape:label="Layer 1"
     inkscape:groupmode="layer"
     id="layer1">
    <path
       style="color:#000000;fill:#000000;fill-opacity:1;fill-rule:evenodd;stroke:#000000;stroke-width:16.6;marker:none;visibility:visible;display:inline;overflow:visible;enable-background:accumulate;stroke-opacity:1;stroke-miterlimit:4;stroke-dasharray:none;filter:url(#filter3795)"
       d="m 137.11822,547.60368 c 0.13134,-0.68024 8.85684,0.3396 24.68928,2.92847 15.83243,2.58886 38.77335,6.74818 67.19891,12.21956 0,0 1e-5,0 2e-5,0 11.46236,41.33636 25.97141,94.95778 41.97583,155.09089 18.04834,0.26263 36.62821,0.55207 55.60872,0.86605 48.04652,0.79478 93.46803,1.65916 134.08194,2.5102 7.07135,-49.7784 13.39485,-91.81319 18.29396,-121.45255 4.89912,-29.63936 8.37034,-46.88032 9.34202,-46.73549 0.97168,0.14483 -0.74421,17.70502 -4.80159,48.15621 -4.05738,30.4512 -10.45976,73.79638 -18.46595,125.17563 -42.15903,-0.36621 -89.96004,-0.87275 -140.48664,-1.52757 -19.96025,-0.25868 -39.48611,-0.52962 -58.39412,-0.81046 -16.15279,-60.40293 -30.4253,-114.6644 -41.25259,-156.87715 0,-10e-6 -1e-5,-10e-6 -1e-5,-10e-6 -27.05177,-5.24006 -49.03035,-9.75368 -64.24807,-13.15992 -15.21773,-3.40623 -23.67305,-5.70362 -23.54171,-6.38386 z"
       id="path2993"
       inkscape:path-effect="#path-effect2995"
       inkscape:original-d="m 137.11822,547.60368 89.839,17.34591 41.61421,155.98402 194.28571,2.85714 25.45176,-170.75994"
       inkscape:connector-curvature="0"
       sodipodi:nodetypes="ccccc" />
    <path
       sodipodi:type="arc"
       style="fill:#000000;fill-opacity:1;stroke:#000000;stroke-width:6;stroke-miterlimit:4;stroke-opacity:1;stroke-dasharray:none;filter:url(#filter3827)"
       id="path3007"
       sodipodi:cx="294.96454"
       sodipodi:cy="761.43823"
       sodipodi:rx="24.243662"
       sodipodi:ry="24.243662"
       d="m 319.2082,761.43823 a 24.243662,24.243662 0 1 1 -48.48732,0 24.243662,24.243662 0 1 1 48.48732,0 z"
       transform="translate(16.162441,6.0609153)" />
    <path
       transform="translate(123.23861,6.0609324)"
       sodipodi:type="arc"
       style="fill:#000000;fill-opacity:1;stroke:#000000;stroke-width:6;stroke-miterlimit:4;stroke-opacity:1;stroke-dasharray:none;filter:url(#filter3831)"
       id="path3007-3"
       sodipodi:cx="294.96454"
       sodipodi:cy="761.43823"
       sodipodi:rx="24.243662"
       sodipodi:ry="24.243662"
       d="m 319.2082,761.43823 a 24.243662,24.243662 0 1 1 -48.48732,0 24.243662,24.243662 0 1 1 48.48732,0 z" />
  </g>
</svg>
