<?xml version="1.0" encoding="utf-8"?>

<!DOCTYPE svg PUBLIC "-//W3C//DTD SVG 1.1//EN" "http://www.w3.org/Graphics/SVG/1.1/DTD/svg11.dtd">
<svg version="1.1" id="Layer_1" xmlns="http://www.w3.org/2000/svg" xmlns:xlink="http://www.w3.org/1999/xlink" x="0px" y="0px"
	 viewBox="-39 -41.2562 1893 2002.5125" enable-background="new -39 -41.2562 1893 2002.5125" xml:space="preserve">
<g>
	<path fill="#ADCB38" d="M231.85,0h40.69c10.51,1.14,21.11,1.57,31.67,1.88c1.52,0.11,3.04,0.22,4.56,0.32
		c3.79,0.33,7.59,0.56,11.4,0.68c0.42,0.04,1.25,0.12,1.66,0.16c3.07,0.48,6.21,0.86,9.34,0.88c0.42,0.04,1.26,0.12,1.68,0.16
		c2.75,0.32,5.57,0.63,8.37,0.76c3.27,0.26,6.47,0.98,9.69,1.56c2.56,1.52,4.95,1.59,7.18,0.22
		c89.84,12.59,178.47,37.12,260.06,77.22c58.29,29.05,113.63,65.96,157.49,114.51c38.9,42.74,67.4,96.37,73.73,154.35
		c-0.17,3.16-0.72,6.48,0.43,9.52c0.11,0.39,0.31,1.17,0.41,1.56c-0.16,8.81-0.43,17.64,0,26.45c-0.13,1.51-0.26,3.02-0.37,4.54
		c-0.47,3.12-0.71,6.3-0.7,9.46c-2.64,13.59-3.16,28.23-8.69,40.86c-21.17-55.95-56.7-105.62-97.99-148.5
		c-84.47-88.04-193.19-149.12-306.2-192.83c-3-1.58-6.15-2.91-9.44-3.72c2.81,2.34,5.94,4.34,9.27,5.89
		c43.62,24.35,85.41,51.85,126.02,80.93c57.26,42.21,112.34,88.13,158.84,142.2c38.22,45.07,74.67,96.54,82.44,156.64
		c-0.44,7.82-0.45,15.65-0.21,23.48c-15.62,8.31-33.45,11.99-50.89,14.21c-11.17-0.6-22.35-0.46-33.52-0.18
		C672.4,518.86,627.91,502.76,587,481c-63.2-33.28-119.13-79.2-167.99-131.02C328.09,251.9,262.37,130.31,231.85,0z"/>
	<path fill="#D5E68B" d="M272.54,0h19.9c3.89,0.79,7.83,1.28,11.77,1.88C293.65,1.57,283.05,1.14,272.54,0z"/>
	<path fill="#D8E698" d="M308.77,2.2c3.81-0.01,7.61,0.22,11.4,0.68C316.36,2.76,312.56,2.53,308.77,2.2z"/>
	<path fill="#D5E29D" d="M321.83,3.04c3.14,0.08,6.22,0.44,9.34,0.88C328.04,3.9,324.9,3.52,321.83,3.04z"/>
	<path fill="#D9E899" d="M332.85,4.08c2.8,0.17,5.55,0.45,8.37,0.76C338.42,4.71,335.6,4.4,332.85,4.08z"/>
	<path fill="#DAE89B" d="M350.91,6.4c2.2-1.41,4.6-1.34,7.18,0.22C355.86,7.99,353.47,7.92,350.91,6.4z"/>
	<path fill="#DEF08C" d="M426.82,100.04c3.29,0.81,6.44,2.14,9.44,3.72c-0.05,0.54-0.13,1.63-0.17,2.17
		C432.76,104.38,429.63,102.38,426.82,100.04z"/>
	<path fill="#C7D981" d="M1193,104.99c17.74-2.23,39.59-0.49,58.95-0.93l0.0701,0.95C1232.34,104.98,1212.67,105.04,1193,104.99z"/>
	<path fill="#D0DD98" d="M1176.99,106c2.8201-1.3,6.5701-1.54,11.27-0.74C1184.49,105.67,1180.73,105.91,1176.99,106z"/>
	<path fill="#ADCB38" d="M1188.26,105.26c1.5599-0.17,3.14-0.28,4.74-0.27c19.67,0.05,39.34-0.01,59.02,0.02
		c1.23,0.02,2.47,0.11,3.72,0.25c3.72,0.42,7.47,0.67,11.26,0.75c1.24,0.03,2.48,0.11,3.75,0.24c2.89,0.35,6.02,0.72,9,1
		c2.63,0.3,5.51,0.69,8.26,0.78c52.65,4.92,104.5699,18.08,153.8199,37.24c-62.37,98.1-159.0299,174.5-268.09,215.32
		c-31.6,11.19-64.23,20.24-97.72,23.35c-2.88,0.12-5.59,0.16-8.34,0.69c-0.66,0.08-1.9901,0.25-2.66,0.33
		c-5.14,0.18-10.3101-0.48-15.34,0.64c-3.8201,0.51-7.63,0.54-11.42,0.1c-5.41-0.66-10.85-0.7-16.25-0.71
		c-1.4-0.03-2.76-0.19-4.1-0.47c-1.43-0.15-4.29-0.43-5.72-0.57c-28.8-2.87-58.08-13.59-78.96-34.23
		c2.89-20.2,17.67-36.81,30.56-51.94c39.68-39.01,90.5001-64.19,141.84-84.25c55.05-21.46,112.5599-36.03,170.63-46.62
		c2.78-0.07,5.52-0.69,8.17-1.59c-7.9-0.19-15.9501-1.15-23.75,0.29c-1.88,0.41-3.8,0.42-5.6801,0.4c-4.48,0.08-8.96-0.3-13.33,0.6
		c-0.66,0.09-1.9801,0.25-2.65,0.34c-3.54,0.05-6.92-0.08-10.34,0.61c-7.2101,0.97-14.4401,1.7-21.66,2.37
		c-2.9,0.13-5.63-0.04-8.34,0.74c-51.92,7.21-103.5901,19.23-151.8401,40.12c-44.99,19.4-87.8199,46.16-120.83,82.62
		c-2.78-0.29-1.76-3.48-2.12-5.41c5.28-55.23,40.89-104.05,87.4-132.72c45.82-28.76,99.43-42.27,152.7-48.26
		c3.02-0.08,6.28,0.06,9.33-0.62c1.2001-0.23,2.42-0.36,3.67-0.4C1180.73,105.91,1184.49,105.67,1188.26,105.26z"/>
	<path fill="#D1DD9A" d="M1255.74,105.26c4.65-0.8,8.4-0.55,11.26,0.75C1263.21,105.93,1259.46,105.68,1255.74,105.26z"/>
	<path fill="#DCEAA0" d="M1163.99,107.02c0.11-3.33,6.88-0.31,9.33-0.62C1170.27,107.08,1167.01,106.94,1163.99,107.02z"/>
	<path fill="#D9E797" d="M1270.75,106.25c2.01,0.75,9.03-1.85,9,1C1276.77,106.97,1273.64,106.6,1270.75,106.25z"/>
	<path fill="#CAD88E" d="M1279.75,107.25c2.45,0.28,7.3101-1.57,8.26,0.78C1285.26,107.94,1282.38,107.55,1279.75,107.25z"/>
	<path fill="#DBEB8C" d="M1260.6801,165.61c7.7999-1.44,15.85-0.48,23.75-0.29c-2.65,0.9-5.39,1.52-8.17,1.59
		C1271.0699,165.85,1265.86,166.32,1260.6801,165.61z"/>
	<path fill="#D5E2A0" d="M1241.67,166.61c4.37-0.9,8.85-0.52,13.33-0.6C1252.66,168.41,1245.84,166.83,1241.67,166.61z"/>
	<path fill="#D5E599" d="M1228.6801,167.56c3.4199-0.69,6.7999-0.56,10.34-0.61C1238.09,169.97,1231.5699,167.42,1228.6801,167.56z"
		/>
	<path fill="#D3E09A" d="M1198.6801,170.67c2.71-0.78,5.4399-0.61,8.34-0.74C1206.1,172.36,1201.14,170.48,1198.6801,170.67z"/>
	<path fill="#C0CD85" d="M926.01,293.41c-3.78,6.55-4.38-3.81-2.12-5.41C924.25,289.93,923.23,293.12,926.01,293.41z"/>
	<path fill="#CFDC8E" d="M849.37,352.7c0.68,3.14,0.34,6.31,0.43,9.52C848.65,359.18,849.2,355.86,849.37,352.7z"/>
	<path fill="#E3EDB4" d="M850.21,363.78c1.57,8.7,0.92,17.7,0,26.45C849.78,381.42,850.05,372.59,850.21,363.78z"/>
	<path fill="#D0DD99" d="M1012.19,383.95c1.43,0.14,4.29,0.42,5.72,0.57C1016.53,385.74,1012.49,386.21,1012.19,383.95z"/>
	<path fill="#D2DD9B" d="M1067.6801,384.63c2.75-0.53,5.46-0.57,8.34-0.69C1075.09,386.35,1070.14,384.5,1067.6801,384.63z"/>
	<path fill="#CAD783" d="M1022.01,384.99c5.4,0.01,10.84,0.05,16.25,0.71C1033.51,385.04,1025,387.79,1022.01,384.99z"/>
	<path fill="#CBDA88" d="M1049.6801,385.6c5.0299-1.12,10.2-0.46,15.34-0.64C1061.89,387.33,1054.59,385.95,1049.6801,385.6z"/>
	<path fill="#DBE79E" d="M849.14,404.23c-0.01-3.16,0.23-6.34,0.7-9.46C849.95,397.95,849.58,401.07,849.14,404.23z"/>
	<path fill="#DA9A9B" d="M1318.71,411.71c16.3501-1.68,33.0901-0.82,49.51,0.05C1351.72,412.04,1335.2,412.28,1318.71,411.71z"/>
	<path fill="#E49497" d="M1300.72,412.68c3.05-0.75,6.0601-0.69,9.27-0.69l0.02,1C1306.8,412.91,1303.83,412.86,1300.72,412.68z"/>
	<path fill="#B23434" d="M1309.99,411.99c2.9301-0.07,5.7-0.2,8.72-0.28c16.49,0.57,33.01,0.33,49.51,0.05
		c2.55,0.08,5.14,0.15,7.77,0.21l0.01,1.02c-22,0.01-44,0.04-65.99,0L1309.99,411.99z"/>
	<path fill="#DE898E" d="M1375.99,411.97c3.45-0.02,6.77,0.32,10.24,0.77c-3.52,0.04-6.79,0.27-10.23,0.25L1375.99,411.97z"/>
	<path fill="#D59697" d="M1289.87,413.83c1.5699-0.16,4.71-0.48,6.27-0.63C1294.58,413.35,1291.4399,413.67,1289.87,413.83z"/>
	<path fill="#D83333" d="M1296.14,413.2c1.51-0.17,3.04-0.33,4.58-0.52c3.11,0.18,6.0801,0.23,9.29,0.31
		c21.99,0.04,43.99,0.01,65.99,0c3.4399,0.02,6.71-0.21,10.23-0.25c12.55,1.44,25.12,2.76,37.65,4.47
		c1.0599,1.27,2.8199,1.16,4.25,0.56c92.0699,14.43,180.4399,57.28,244.71,125.42c75.76,77.98,117.42,183.43,133.38,289.69
		c-0.64,1.39-0.72,3.15,0.5601,4.25c1.13,5.54,1.8199,11.15,2.47,16.77c-0.66,1.7-0.83,3.7599,0.54,5.2
		c0.5399,4.58,1.0699,9.17,1.37,13.8c-1.39,2.87-1.16,5.28,0.6899,7.22c0.14,1.18,0.3101,2.38,0.49,3.59
		c-0.15,2.78-0.38,5.77,0.39,8.56c0.14,0.61,0.42,1.84,0.55,2.46c-0.2101,3.11-0.3401,6.44,0.38,9.56c0.08,1.67,0.25,5.01,0.34,6.68
		c0.26,5.14-1.04,10.67,1,15.6201v59.95c-0.8199,4.41-1.0601,8.95-1.02,13.47c-0.15,3.26,0.0601,6.69,0.02,10.01
		c-0.03,0.69-0.11,2.07-0.15,2.76c-0.52,3.06-0.7,6.29-0.74,9.43c-0.0599,0.64-0.1799,1.93-0.24,2.58
		c-0.71,3.3999-0.87,6.96-0.6899,10.4399c-0.13,1.51-0.2401,3.03-0.3301,4.5601c-0.45,2.7-0.5399,5.62-0.7,8.4099
		c-0.14,1.5601-0.25,3.13-0.36,4.7101c-1.37,1.4099-1.2001,3.46-0.55,5.1899c-0.11,0.6901-0.3199,2.05-0.4299,2.74
		c-0.16,1.5701-0.4801,4.7201-0.64,6.29c-0.15,1.58-0.27,3.17-0.38,4.78c-1.37,1.4099-1.2001,3.45-0.55,5.1699
		c-0.6,3.55-1.05,7.2001-1.45,10.8c-1.29,1.0599-1.2101,2.8-0.5901,4.23c-0.5599,3.2001-0.8999,6.55-1.4399,9.79
		c-1.3201,1.45-1.16,3.48-0.52,5.22c-0.12,0.6901-0.36,2.0699-0.48,2.76c-1.34,1.45-1.16,3.49-0.49,5.23
		c-0.5801,2.9-1.1801,5.8101-1.52,8.77c-1.21,1.12-1.1801,2.8199-0.59,4.27c-0.1,0.4299-0.3,1.2899-0.39,1.72
		c-1.3301,1.45-1.17,3.49-0.52,5.23c-0.5601,2.24-1.11,4.48-1.53,6.76c-1.2,1.13-1.14,2.84-0.5,4.27
		c-2.86,17.7-6.78,35.2-10.4299,52.75c-1.24,1.0699-1.23,2.78-0.64,4.22c-17.1801,79.87-38.74,159.04-69,235.02
		c-29.2101,73.4-66.41,144.2-116.16,205.87c-51.55,64.3101-118.27,117.13-194.99,148c-33.13,13.4-67.71,22.9401-102.87,29.26
		c-1.42-0.66-3.2-0.77-4.25,0.55c-11.28,1.2799-22.49,3.08-33.76,4.36c-2.96-1.39-5.38-1.16-7.24,0.6899
		c-1.21,0.14-2.41,0.3-3.59,0.49c-2.98-0.12-5.73-0.08-8.5801,0.29c-3.5499,0.1-6.9399,0.37-10.4299,0.7
		c-18.76-0.63-37.53-0.26-56.29-0.3199c-4.4399-0.0601-8.8199,0.11-13.21,0.24c-6.63-0.22-13.24-0.05-19.72-1.59
		c-2.5601-1.6-4.9401-1.7201-7.14-0.37c-1.9401-0.2001-3.87-0.3501-5.79-0.4701c-1.5699-0.1599-4.72-0.47-6.29-0.63
		c-0.6799-0.11-2.0499-0.3199-2.74-0.4299c-1.45-1.34-3.5-1.17-5.1899-0.49c-4-0.4301-7.87-0.9401-11.8101-1.53
		c-1.48-1.3-3.51-1.14-5.21-0.51c-0.6901-0.1-2.0701-0.29-2.76-0.39c-1.05-1.37-2.86-1.24-4.25-0.61
		c-3.27-0.4199-6.5-1.0599-9.76-1.46c-1.11-1.28-2.87-1.1901-4.25-0.53c-2.6-0.47-5.16-1.04-7.74-1.48
		c-1.13-1.23-2.85-1.1901-4.25-0.59c-18.7-3.1901-37.29-7.05-55.75-11.39c-1.12-1.27-2.86-1.2001-4.26-0.5801
		c-2.25-0.5399-4.5-1.08-6.76-1.51c-1.5-1.1299-3.4-1.12-5.11-0.6899c-1.23-1.66-3.41-1.42-5.08-0.73
		c-4.01-0.41-7.91-0.91-11.84-1.64c-2.58-1.59-4.96-1.6901-7.15-0.3101c-1.67-0.1499-5.02-0.4399-6.69-0.59
		c-7.48-0.89-15.09-1.2999-22.54-0.12c-1.66,0.16-4.97,0.46-6.62,0.62c-1.72-0.64-3.72-0.78-5.18,0.49
		c-21.95,2.1901-41.59,13.05-62.67,18.64c-32.63,11.48-66.32,19.6-100.11,26.86c-1.43-0.64-3.21-0.73-4.26,0.61l-0.72,0.3501
		c-1.45-0.62-3.2-0.64-4.28,0.6499l-0.72,0.3401c-1.45-0.6001-3.2-0.63-4.28,0.6699c-0.43,0.0701-1.29,0.23-1.72,0.3101
		c-1.44-0.5801-3.17-0.61-4.26,0.64c-4.96,0.6599-9.89,1.4299-14.78,2.49c-1.73-0.6801-3.8199-0.88-5.25,0.53l-0.7,0.3799
		c-1.75-0.59-3.77-0.72-5.2401,0.5701c-1.28,0.13-2.55,0.29-3.81,0.47c-1.72-0.64-3.77-0.8099-5.18,0.5701
		c-4.94,0.5599-9.87,1.0599-14.81,1.38c-1.43-0.6101-3.18-0.67-4.22,0.6399c-1.88,0.13-3.75,0.28-5.61,0.51
		c-3.5601-0.2699-7.1201-0.7-10.55,0.39c-0.62,0.15-1.85,0.4401-2.46,0.5901c-3.16-0.26-6.19-0.26-9.29-0.3
		c-12-0.0601-23.99-0.04-35.98-0.01c-5.1-0.08-10.16,0-15.23,0.24c-2.95-0.33-5.79-0.27-8.69-0.5c-2.51-1.7-4.89-1.83-7.14-0.38
		c-4.95-0.5499-9.88-1.11-14.83-1.54c-1.06-1.33-2.83-1.24-4.22-0.62c-7.64-0.8099-15.24-1.97-22.77-3.4299
		c-1.12-1.23-2.84-1.21-4.26-0.61l-0.72-0.3201c-1.07-1.35-2.85-1.26-4.26-0.63C443.57,1830.78,347.83,1770.65,275.97,1691.02
		c-82.14-90.49-139.63-200.3-185.05-312.98c-30.2-75.2201-55.57-152.49-72.14-231.92c0.6-1.42,0.74-3.23-0.65-4.21
		c-2.72-13.2101-5.28-26.4701-7.37-39.78c0.63-1.4301,0.71-3.16-0.52-4.26c-0.46-2.61-1.04-5.1801-1.53-7.76
		c0.66-1.73,0.86-3.78-0.47-5.23c-0.12-0.6901-0.36-2.0699-0.48-2.77c0.61-1.75,0.77-3.78-0.52-5.25
		c-0.12-0.4299-0.36-1.2999-0.47-1.74c0.41-1.35,0.47-2.7,0.18-4.04c-0.22-16.76-3.66-33.33-3.88-50.11
		c-0.35-1.23,0.43-3.3799-1.13-3.87l-0.85-0.44c-0.02-0.66-0.08-1.99-0.11-2.65c0.01-3.09,0.04-6,0.03-9.02
		c-0.3-5.2,1.02-10.64-1.01-15.57v-32.96c1.11-5.78,1.02-11.66,1.01-17.48c0.04-1.69,0.11-5.07,0.15-6.76
		c0.27-2.9,0.55-5.61,0.75-8.4399c0.09-0.6801,0.28-2.04,0.37-2.71c1.61-2.55,1.74-4.93,0.4-7.15c0.2-1.62,0.37-3.23,0.56-4.83
		c1.31-1.45,1.14-3.48,0.52-5.17c0.52-3.65,1.07-7.19,1.5-10.82c1.3-1.47,1.12-3.52,0.45-5.21c5.93-38.55,15.14-76.79,30.44-112.75
		c25.35-62.38,68.62-117.71,124.44-155.57c47.02-32.47,102.03-52.22,158.32-60.84c1.32,0.43,2.66,0.52,4.02,0.26
		c34.26-3.64,68.63-4.96,103.12-3.98c1.76-0.05,5.28-0.15,7.05-0.19c0.66,0.07,2,0.21,2.66,0.28c2.77,0.28,5.63,0.63,8.45,0.76
		c15.95,1.64,31.83,3.88,47.67,6.35c1.07,1.25,2.82,1.17,4.24,0.6c41.05,7.7,81.38,19.03,120.49,33.66
		C743.16,643.77,856.95,721.84,953.32,815.9c-0.42,4.29-4.91-1.84-7.58-1.75C830.38,729.7,695.63,672.74,556.13,642.79
		c-1.1-1.27-2.85-1.19-4.26-0.58c-11.49-2.62-23.11-4.6-34.75-6.42c-1.09-1.2599-2.82-1.19-4.23-0.6c-8.9-1.3-17.81-2.58-26.77-3.34
		c-1.54-0.25-4.62-0.74-6.15-0.98c-2.31-1.65-4.63-1.89-6.95-0.74l-0.81-0.12c-7.67-1.34-15.44-1.99-23.22-2.01
		c-1.93-0.07-3.84-0.14-5.76-0.25c-17.12-1.25-34.39-1.14-51.52-0.15c-2.71,0.25-5.34,0.62-7.99,1.07c-1.54,0.17-3.07,0.32-4.6,0.49
		c-2.92-1.33-5.33-1.1-7.24,0.6801c-4.61,0.35-9.22,0.8-13.8,1.37c-1.72-0.6-3.72-0.75-5.17,0.53
		c-69.66,8.76-139.58,36.76-186.92,90.24c-41.59,46.03-63.74,106.35-73.21,166.89c-1.26,1.09-1.17,2.83-0.55,4.25
		c-1.01,6.2-1.83,12.4-2.28,18.68l-0.67,0.28c-3.21,13.18-2.63,28.55-3.44,42.62c-0.68,14.23-2.33,29.43,0.1,43.33
		c0.21,0.33,0.63,0.99,0.84,1.3199c0.22,2.81,0.32,5.52,0.47,8.42c-0.02,3.8,0.16,7.62,0.52,11.46c0.14,1.82,0.35,3.65,0.56,5.49
		c0.04,2.76-0.13,5.73,0.35,8.5601c0.19,1.85,0.34,3.72,0.47,5.61c-1.29,2.84-1.06,5.25,0.68,7.23c0.38,4.23,0.9,8.49,1.36,12.74
		c0.16,1.5701,0.48,4.7001,0.64,6.27c0.13,1.58,0.24,3.17,0.38,4.78c-0.59,1.7-0.73,3.7,0.51,5.1899
		c1.64,10.24,3.17,20.49,4.46,30.78c-0.58,1.4-0.63,3.12,0.58,4.24c7.9,49.62,18.69,98.77,31.79,147.27
		c26.54,75.33,57.26,149.37,95.54,219.5599c56.67,103.24,132.84,201.3301,238.96,256.9601c47.61,25.1699,100.32,40.38,153.89,45.45
		c2.5,1.4501,4.88,1.5701,7.14,0.37c2.54,0.13,5.1,0.3,7.69,0.5c5.03,0.53,10.15,0.76,15.23,0.79c10.57,1.35,21.53,1.74,32.1,0.23
		c3.69-0.35,7.4-0.7,11.12-1.0601c2.54-0.1699,5.1-0.2699,7.69-0.3099c2.86,1.1899,5.26,0.9399,7.21-0.73
		c7.27-0.64,14.53-1.49,21.78-2.39c1.7,0.59,3.71,0.75,5.21-0.46c2.93-0.42,5.84-1.01,8.76-1.52c1.39,0.58,3.13,0.6599,4.26-0.53
		c43.18-7.09,85.66-18.38,126.81-33.27c17.29-5.6899,33.85-13.77,51.83-17.22c19.43-2.28,38.99-2.13,58.43,0.05
		c44.05,9.24,87.7,21.21,132.67,25.37c1.5601,0.1599,4.7,0.48,6.27,0.6399c4.25,0.5701,8.5,1.0801,12.7999,1.5601
		c2.5,1.46,4.88,1.5599,7.14,0.3099c1.8401,0.17,3.7001,0.3301,5.5601,0.5601c0.35,0.1899,1.03,0.58,1.37,0.77
		c26.17,2.5499,53.01,3.1699,79.27,0.33c1.33-0.34,2.65-0.74,3.99-1.11c1.86-0.17,3.73-0.28,5.62-0.37
		c2.7999,1.17,5.21,0.9401,7.24-0.67c3.25-0.3899,6.46-1.0199,9.72-1.4399c1.5801-0.13,4.73-0.39,6.3101-0.52
		c27.5399-4.42,55.11-9.45,81.5499-18.58c79.16-25.4601,149.65-75.64,201.6801-140.28c27.78-32.45,49.5599-69.39,70.54-106.4301
		c4.62-5.9099,8.23-12.8199,9.96-20.1399c46.3099-97.8,74.74-203.1901,92.36-309.7001c1.3-1.48,1.1-3.53,0.46-5.21
		c1.5701-8.88,2.5901-17.84,3.4501-26.8101c1.2799-1.0499,1.21-2.8099,0.6899-4.2c0.0801-0.6901,0.24-2.05,0.3201-2.74
		c0.1699-1.5701,0.5-4.7101,0.6699-6.28c0.0901-1.6,0.1901-3.17,0.3201-4.74c0.1699-1.5699,0.5-4.7,0.6599-6.27
		c0.6001-4.88,1.2001-9.74,1.37-14.64c0.1001-2.9,0.5801-5.59,0.65-8.4299c0.1-1.87,0.1801-3.73,0.3201-5.5801
		c0.11-2.8999,0.59-5.59,0.7-8.4199c0.08-1.2001,0.1801-2.39,0.3-3.5601c0.49-3.51,0.88-6.9399,0.6799-10.45
		c0.1801-3.47,0.15-7.04,0.4401-10.47c0.21-0.54,0.65-1.6201,0.87-2.17c1.61-9.63,0.6799-19.44,0.84-29.14
		c0.02-10.91-0.21-21.82,0.35-32.7c-0.72-10.09,0.87-20.64-1.13-30.49c-0.24-0.53-0.73-1.58-0.97-2.11
		c-0.22-2.79-0.5599-5.69-0.6-8.4c-0.05-3.29,0.49-6.44-0.29-9.6c-0.2-1.2-0.37-2.4-0.51-3.58c1.27-2.98,1.03-5.39-0.73-7.22
		c-0.1-1.94-0.1799-3.86-0.25-5.77c-0.17-1.57-0.51-4.71-0.6799-6.28c-0.0901-0.67-0.27-2.03-0.3601-2.7
		c-0.1599-1.57-0.48-4.72-0.6399-6.29c-0.15-1.27-0.29-2.52-0.4-3.76c0.5699-1.73,0.73-3.73-0.49-5.2
		c-7.5901-56.13-20.23-111.98-43.16-163.96c-26.17-60.6-66.26-115.9-118.9401-156.12c-51.83-40.53-114.6499-65.28-179.0599-77.03
		c-1.11-1.27-2.87-1.19-4.26-0.57c-4.9-0.96-9.84-1.73-14.77-2.48c-1.48-1.28-3.5-1.13-5.2-0.51c-1.28-0.16-2.55-0.31-3.8-0.46
		c-1.46-1.32-3.49-1.16-5.1799-0.56c-4.2201-0.64-8.4601-1.11-12.7001-1.37c-2.9099-0.33-5.5499-0.57-8.37-0.77
		c-0.4199-0.04-1.26-0.13-1.6799-0.17c-3.49-0.67-6.89-0.93-10.39-0.73c-2.8401-0.16-5.8201-0.34-8.54-0.45
		c-15.8-1.07-31.76-1.28-47.53-0.09c-2.51,0.26-4.98,0.51-7.4199,0.75c-2.9701-0.02-5.74-0.21-8.5701,0.27
		c-1.83,0.23-3.64,0.47-5.4399,0.69c-2.9401-0.05-5.74-0.57-8.41,0.55l-0.74,0.22c-2.9301,0.11-5.63,0.09-8.41,0.56
		c-1.21,0.16-2.4,0.33-3.5699,0.52c-1.5801,0.15-4.72,0.45-6.29,0.6c-9.3099,0.67-18.49,2.44-27.76,3.43
		c-1.74-0.6-3.73-0.74-5.21,0.48c-106.84,17-209.89,53.29-306.85,100.76c-0.85-0.69-1.64-1.43-2.34-2.2401
		c110.14-77.02,234.1-137.56,367.18-161.41c1.39,0.58,3.13,0.64,4.25-0.59c9.85-1.83,19.73-3.58,29.73-4.42
		c1.5701-0.15,4.71-0.46,6.28-0.62c1.24-0.14,2.49-0.27,3.77-0.4c1.6899,0.59,3.74,0.77,5.1799-0.57
		c1.5701-0.14,3.17-0.26,4.78-0.38C1291.4399,413.67,1294.58,413.35,1296.14,413.2z"/>
	<path fill="#E4898A" d="M1279.91,414.78c1.4199-1.32,3.4399-1.17,5.1799-0.57C1283.65,415.55,1281.6,415.37,1279.91,414.78z"/>
	<path fill="#DA9495" d="M1269.86,415.8c1.5701-0.15,4.71-0.46,6.28-0.62C1274.5699,415.34,1271.4301,415.65,1269.86,415.8z"/>
	<path fill="#DB9797" d="M1423.88,417.21c1.39-0.61,3.13-0.68,4.25,0.56C1426.7,418.37,1424.9399,418.48,1423.88,417.21z"/>
	<path fill="#EBA2A3" d="M1235.88,420.81c1.05-1.29,2.8199-1.2,4.25-0.59C1239.01,421.45,1237.27,421.39,1235.88,420.81z"/>
	<path fill="#C96665" d="M1259.71,475.63c15.77-1.19,31.73-0.98,47.53,0.09C1291.39,476.11,1275.54,476.25,1259.71,475.63z"/>
	<path fill="#D08383" d="M1243.72,476.65c2.8301-0.48,5.6-0.29,8.5701-0.27C1249.45,476.76,1246.46,476.56,1243.72,476.65z"/>
	<path fill="#C8787A" d="M1315.78,476.17c3.5-0.2,6.9,0.06,10.39,0.73C1322.71,476.99,1319.15,476.66,1315.78,476.17z"/>
	<path fill="#DC8488" d="M1229.87,477.89c2.67-1.12,5.47-0.6,8.41-0.55C1235.5,477.76,1232.55,477.68,1229.87,477.89z"/>
	<path fill="#DF928B" d="M1327.85,477.07c2.8201,0.2,5.4601,0.44,8.37,0.77C1333.4399,477.73,1330.51,477.36,1327.85,477.07z"/>
	<path fill="#F2BBB8" d="M1220.72,478.67c2.78-0.47,5.48-0.45,8.41-0.56C1226.46,479.23,1223.4301,478.62,1220.72,478.67z"/>
	<path fill="#F9B9B6" d="M1210.86,479.79c1.5701-0.15,4.71-0.45,6.29-0.6C1215.5699,479.34,1212.4301,479.64,1210.86,479.79z"/>
	<path fill="#F1A5A9" d="M1348.92,479.21c1.6899-0.6,3.72-0.76,5.1799,0.56C1352.37,480.37,1350.33,480.55,1348.92,479.21z"/>
	<path fill="#CF8B89" d="M1357.9,480.23c1.7-0.62,3.72-0.77,5.2,0.51C1361.37,481.37,1359.33,481.55,1357.9,480.23z"/>
	<path fill="#E49292" d="M1177.89,483.7c1.48-1.22,3.47-1.08,5.21-0.48C1181.65,484.58,1179.58,484.37,1177.89,483.7z"/>
	<path fill="#E38F8E" d="M1377.87,483.22c1.39-0.62,3.15-0.7,4.26,0.57C1380.6899,484.38,1378.95,484.47,1377.87,483.22z"/>
	<path fill="#C7D883" d="M803.39,485.7c1.06,7.7,1.26,16.02-0.21,23.48C802.94,501.35,802.95,493.52,803.39,485.7z"/>
	<path fill="#CEDF8A" d="M718.77,523.21c11.17-0.28,22.35-0.42,33.52,0.18C741.2,524.73,729.86,524.25,718.77,523.21z"/>
	<path fill="#DA9A99" d="M369.77,553.75c15.09-1.21,30.36-1.25,45.46,0.02C400.07,554.01,384.91,554.28,369.77,553.75z"/>
	<path fill="#B43D3E" d="M350.14,555.18c6.52-0.74,13.06-1.23,19.63-1.43c15.14,0.53,30.3,0.26,45.46,0.02
		c3.6,0.26,7.18,0.28,10.81,0.42l0.01,0.82c-34.49-0.98-68.86,0.34-103.12,3.98l0.08-0.76c6.93-0.97,13.83-2.35,20.86-2.43
		C345.44,555.64,348.57,555.33,350.14,555.18z"/>
	<path fill="#F3A8A5" d="M426.04,554.19c2.25-1.18,4.6-0.97,7.06,0.63c-1.77,0.04-5.29,0.14-7.05,0.19L426.04,554.19z"/>
	<path fill="#D18789" d="M343.87,555.8c1.57-0.16,4.7-0.47,6.27-0.62C348.57,555.33,345.44,555.64,343.87,555.8z"/>
	<path fill="#D48D8E" d="M435.76,555.1c2.83,0.1801,5.6,0.4,8.45,0.76C441.39,555.73,438.53,555.38,435.76,555.1z"/>
	<path fill="#E89496" d="M318.91,558.73c1.13-1,2.75-1.22,4.1-0.5l-0.08,0.76C321.57,559.25,320.23,559.16,318.91,558.73z"/>
	<path fill="#EEA39F" d="M491.88,562.21c1.4-0.61,3.16-0.69,4.24,0.6C494.7,563.38,492.95,563.46,491.88,562.21z"/>
	<path fill="#A55B5F" d="M856.83,591.06c3.47-3.55,7.87-5.96,11.87-8.84c0.7,0.8101,1.49,1.55,2.34,2.2401
		C866.37,586.79,861.83,589.51,856.83,591.06z"/>
	<path fill="#B84C49" d="M391.71,627.6c17.13-0.99,34.4-1.1,51.52,0.15c-1.86,0.12-5.59,0.36-7.46,0.48
		c-12.49-0.36-25-0.48-37.48,0.13C396.09,628.11,393.9,627.83,391.71,627.6z"/>
	<path fill="#E6A4A7" d="M383.72,628.67c2.65-0.45,5.28-0.82,7.99-1.07c2.19,0.23,4.38,0.51,6.58,0.76
		C393.52,629.53,388.54,628.62,383.72,628.67z"/>
	<path fill="#E4A6A5" d="M435.77,628.23c1.87-0.12,5.6-0.36,7.46-0.48c1.92,0.11,3.83,0.18,5.76,0.25l0.02,1.01
		C444.58,629.01,440.15,628.67,435.77,628.23z"/>
	<path fill="#B95959" d="M448.99,628c7.78,0.02,15.55,0.67,23.22,2.01c-7.75-0.09-15.44-1.15-23.2-1L448.99,628z"/>
	<path fill="#F2A7A8" d="M371.88,629.84c1.91-1.78,4.32-2.01,7.24-0.6801C377.18,630.89,374.77,631.12,371.88,629.84z"/>
	<path fill="#B56060" d="M473.02,630.13c2.32-1.15,4.64-0.91,6.95,0.74C477.69,632.07,475.38,631.83,473.02,630.13z"/>
	<path fill="#EA9899" d="M352.91,631.74c1.45-1.28,3.45-1.13,5.17-0.53C356.66,632.57,354.61,632.38,352.91,631.74z"/>
	<path fill="#EF9B98" d="M479.97,630.87c1.53,0.24,4.61,0.73,6.15,0.98C484.58,631.6,481.5,631.11,479.97,630.87z"/>
	<path fill="#E49192" d="M512.89,635.19c1.41-0.59,3.14-0.66,4.23,0.6C515.71,636.38,513.95,636.47,512.89,635.19z"/>
	<path fill="#E9A7A7" d="M551.87,642.21c1.41-0.61,3.16-0.69,4.26,0.58C554.7,643.38,552.95,643.46,551.87,642.21z"/>
	<path fill="#A74A4A" d="M945.74,814.15c2.67-0.09,7.16,6.04,7.58,1.75c6.95,7.04,14.37,13.66,20.74,21.2599
		C964.07,830.41,955.07,821.88,945.74,814.15z"/>
	<path fill="#D89494" d="M1806.22,832.88c1.24,1.08,1.13,2.83,0.5601,4.25C1805.5,836.03,1805.58,834.27,1806.22,832.88z"/>
	<path fill="#E89C9C" d="M1809.25,853.9c1.26,1.45,1.1,3.47,0.54,5.2C1808.42,857.66,1808.59,855.6,1809.25,853.9z"/>
	<path fill="#DC898D" d="M1811.16,872.9c1.6799,1.88,1.9099,4.29,0.6899,7.22C1810,878.18,1809.77,875.77,1811.16,872.9z"/>
	<path fill="#D99191" d="M1723.29,880.9c1.22,1.47,1.0599,3.47,0.49,5.2C1722.4,884.65,1722.6,882.59,1723.29,880.9z"/>
	<path fill="#D2898B" d="M1812.34,883.71c0.48,2.83,0.13,5.62,0.39,8.56C1811.96,889.48,1812.1899,886.49,1812.34,883.71z"/>
	<path fill="#D8938E" d="M5.26,893.1c-0.64-1.72-0.8-3.73,0.45-5.21C6.38,889.58,6.56,891.63,5.26,893.1z"/>
	<path fill="#D79796" d="M92.23,893.12c-0.62-1.42-0.71-3.16,0.55-4.25C93.39,890.26,93.48,892.01,92.23,893.12z"/>
	<path fill="#EA9896" d="M1724.1801,889.86c0.1599,1.57,0.48,4.72,0.6399,6.29C1724.66,894.58,1724.34,891.43,1724.1801,889.86z"/>
	<path fill="#EFA2A3" d="M1813.28,894.73c1.01,3.11,0.2999,6.29,0.38,9.56C1812.9399,901.17,1813.0699,897.84,1813.28,894.73z"/>
	<path fill="#DC9291" d="M1725.1801,898.85c0.1699,1.57,0.5099,4.71,0.6799,6.28C1725.6899,903.56,1725.35,900.42,1725.1801,898.85z
		"/>
	<path fill="#E09F9F" d="M3.24,909.09c-0.62-1.72-0.79-3.7401,0.52-5.17C4.38,905.61,4.55,907.64,3.24,909.09z"/>
	<path fill="#EDA3A4" d="M1726.11,910.9c1.76,1.83,2,4.24,0.73,7.22C1725.04,916.14,1724.8,913.74,1726.11,910.9z"/>
	<path fill="#F18E92" d="M1814,910.97l1,0.08v15.54C1812.96,921.64,1814.26,916.11,1814,910.97z"/>
	<path fill="#B03E3E" d="M85.84,954.7c0.81-14.07,0.23-29.44,3.44-42.62c-1.26,1.82-0.69,4.1,0.16,5.97
		c-0.27,1.61-0.54,3.24-0.81,4.88c-1.51,2.5-1.62,4.88-0.34,7.15c-0.18,1.89-0.33,3.79-0.46,5.7c-0.41,3.0699-0.74,6.29-0.69,9.4399
		c-0.14,3.29-0.2,6.48-0.26,9.84L85.84,954.7z"/>
	<path fill="#E5999C" d="M89.28,912.08l0.67-0.28c-0.13,1.56-0.39,4.68-0.51,6.25C88.59,916.18,88.02,913.9,89.28,912.08z"/>
	<path fill="#DB8888" d="M2.28,921.07c-1.28-2.3-1.14-4.68,0.4-7.15C4.02,916.14,3.89,918.52,2.28,921.07z"/>
	<path fill="#D08E8A" d="M1727.35,921.7c0.78,3.16,0.24,6.31,0.29,9.6C1726.9399,928.15,1727.11,924.83,1727.35,921.7z"/>
	<path fill="#E4AAA5" d="M88.29,930.08c-1.28-2.27-1.17-4.65,0.34-7.15C90.02,925.16,89.91,927.54,88.29,930.08z"/>
	<path fill="#E7A8A7" d="M1.16,932.22c0.03-2.8199,0.38-5.72,0.75-8.4399C1.71,926.61,1.43,929.32,1.16,932.22z"/>
	<path fill="#E49793" d="M87.14,945.22c-0.05-3.15,0.28-6.37,0.69-9.4399C87.9,938.96,87.55,942.02,87.14,945.22z"/>
	<path fill="#F48686" d="M0,939.05l1.01-0.07c0.01,5.82,0.1,11.7-1.01,17.48V939.05z"/>
	<path fill="#EB9E9F" d="M1728.24,939.7c0.24,0.53,0.73,1.58,0.97,2.11c-0.1699,4.46-0.34,8.97-0.52,13.47
		C1727.3199,950.2,1728.23,944.84,1728.24,939.7z"/>
	<path fill="#AD4445" d="M1729.21,941.81c2,9.85,0.41,20.4,1.13,30.49c-0.2999-0.37-0.9-1.11-1.1899-1.48
		c-0.23-5.18-0.29-10.4-0.4601-15.54C1728.87,950.78,1729.04,946.27,1729.21,941.81z"/>
	<path fill="#AF2D2B" d="M85.94,998.03c-2.43-13.9-0.78-29.1-0.1-43.33C86.13,969.14,85.97,983.58,85.94,998.03z"/>
	<path fill="#D18688" d="M85.84,954.7l1.04,0.36c0.23,14.75,0.22,29.52-0.1,44.29c-0.21-0.33-0.63-0.99-0.84-1.3199
		C85.97,983.58,86.13,969.14,85.84,954.7z"/>
	<path fill="#CA8081" d="M1729.15,970.82c0.2899,0.37,0.89,1.11,1.1899,1.48c-0.5599,10.88-0.33,21.79-0.35,32.7h-0.97
		C1728.9301,993.6,1728.95,982.2,1729.15,970.82z"/>
	<path fill="#EE787B" d="M1813.98,1000.01c-0.04-4.52,0.2001-9.06,1.02-13.47v13.44L1813.98,1000.01z"/>
	<path fill="#F27175" d="M0,989.42c2.03,4.93,0.71,10.37,1.01,15.57L0,1005.01V989.42z"/>
	<path fill="#FDC4C6" d="M1813.98,1000.01l1.02-0.03v9.96l-1,0.08C1814.04,1006.7,1813.83,1003.27,1813.98,1000.01z"/>
	<path fill="#FEBEC0" d="M0,1005.01l1.01-0.02c0.01,3.02-0.02,5.93-0.03,9.02L0,1013.98V1005.01z"/>
	<path fill="#AA4645" d="M1729.02,1005h0.97c-0.16,9.7,0.77,19.51-0.84,29.14c-0.1-4.83-0.22-9.58-0.34-14.36
		C1729.0699,1014.86,1728.89,1009.89,1729.02,1005z"/>
	<path fill="#E29596" d="M87.25,1007.77c0.29,3.79,0.46,7.61,0.52,11.46C87.41,1015.39,87.23,1011.57,87.25,1007.77z"/>
	<path fill="#EFA7A8" d="M1813.11,1022.21c0.04-3.14,0.22-6.37,0.74-9.43C1813.95,1015.96,1813.4399,1019.01,1813.11,1022.21z"/>
	<path fill="#E5A5A3" d="M1.09,1016.66l0.85,0.44c-0.03,2.97-0.09,6.13-0.24,9.17C0.87,1023.15,1.1,1019.79,1.09,1016.66z"/>
	<path fill="#B34242" d="M1.94,1017.1c1.56,0.4901,0.78,2.64,1.13,3.87c0.22,16.78,3.66,33.35,3.88,50.11L6.18,1071
		c-0.45-3.99-0.91-7.97-1.41-11.92c0.61-1.73,0.79-3.76-0.56-5.1699c-0.14-1.61-0.25-3.2001-0.38-4.78
		c-0.17-1.5699-0.5-4.7-0.67-6.27c-0.1-1.26-0.19-2.51-0.28-3.75c1.27-2.9399,1.02-5.35-0.73-7.22c-0.13-1.89-0.26-3.76-0.45-5.62
		C1.85,1023.23,1.91,1020.07,1.94,1017.1z"/>
	<path fill="#EDA6A4" d="M1728.28,1036.3101c-0.24-5.54-0.36-11.0701,0.53-16.53c0.12,4.78,0.24,9.53,0.34,14.36
		C1728.9301,1034.6899,1728.49,1035.77,1728.28,1036.3101z"/>
	<path fill="#E2A9A7" d="M88.33,1024.72c0.48,2.8301,0.29,5.61,0.35,8.5601C88.2,1030.45,88.37,1027.48,88.33,1024.72z"/>
	<path fill="#D58D90" d="M1812.1801,1035.23c-0.1801-3.48-0.02-7.04,0.6899-10.4399
		C1813.02,1028.3,1812.62,1031.72,1812.1801,1035.23z"/>
	<path fill="#EDA5A3" d="M2.15,1031.89c1.75,1.87,2,4.28,0.73,7.22C1.08,1037.17,0.84,1034.77,2.15,1031.89z"/>
	<path fill="#E79596" d="M89.15,1038.89c1.77,1.87,2,4.28,0.68,7.23C88.09,1044.14,87.86,1041.73,89.15,1038.89z"/>
	<path fill="#EAA0A2" d="M1811.15,1048.2c0.16-2.7899,0.25-5.71,0.7-8.4099C1811.76,1042.62,1811.27,1045.3101,1811.15,1048.2z"/>
	<path fill="#E7A7AA" d="M3.16,1042.86c0.17,1.5701,0.5,4.7001,0.67,6.27C3.66,1047.5601,3.33,1044.4301,3.16,1042.86z"/>
	<path fill="#D08B8D" d="M1727.16,1057.23c-0.15-3.49,0.0399-7.04,0.6799-10.45C1728.04,1050.29,1727.65,1053.72,1727.16,1057.23z"
		/>
	<path fill="#E8AEAB" d="M1810.24,1058.1c-0.65-1.73-0.8199-3.78,0.55-5.1899C1811.35,1054.61,1811.51,1056.64,1810.24,1058.1z"/>
	<path fill="#F6AEAD" d="M4.21,1053.91c1.35,1.4099,1.17,3.4399,0.56,5.1699C3.46,1057.63,3.61,1055.61,4.21,1053.91z"/>
	<path fill="#F1AAAC" d="M91.19,1058.86c0.16,1.5701,0.48,4.7001,0.64,6.27C91.67,1063.5601,91.35,1060.4301,91.19,1058.86z"/>
	<path fill="#EFA2A5" d="M1726.16,1069.21c0.12-2.7999,0.25-5.72,0.7-8.4199C1726.75,1063.62,1726.27,1066.3101,1726.16,1069.21z"/>
	<path fill="#DE8C8C" d="M1809.17,1067.13c0.1599-1.5699,0.48-4.72,0.64-6.29C1809.65,1062.41,1809.33,1065.5601,1809.17,1067.13z"
		/>
	<path fill="#D18D8B" d="M92.21,1069.91c1.37,1.4099,1.17,3.47,0.51,5.1899C91.48,1073.61,91.62,1071.61,92.21,1069.91z"/>
	<path fill="#F19FA5" d="M6.18,1071l0.77,0.08c0.29,1.3401,0.23,2.6901-0.18,4.04C5.76,1073.98,5.52,1072.36,6.18,1071z"/>
	<path fill="#E7ADAE" d="M1808.24,1077.08c-0.65-1.72-0.8199-3.76,0.55-5.1699C1809.36,1073.61,1809.52,1075.63,1808.24,1077.08z"/>
	<path fill="#DC9998" d="M1725.1899,1083.22c0.1101-2.7999,0.2201-5.72,0.65-8.4299
		C1725.77,1077.63,1725.29,1080.3199,1725.1899,1083.22z"/>
	<path fill="#1F1A17" d="M770.03,1168.02c26.96-35.46,60.8-64.88,95.87-92.04c2.81,13.39,4.5699,27.46,6.1,41.1801
		c-0.23,1.2899-0.08,2.63,0.54,3.83c0.91,4.27,1.52,8.75,1.45,13.17c-0.22,1.2899-0.07,2.64,0.56,3.83c0.72,1.96,0.41,4.13,0.39,6.2
		c0.14,1.4301,0.42,4.29,0.56,5.7201c0.13,1.8199,0.39,5.46,0.51,7.2799c-0.22,1.5901-0.11,3.2401,0.51,4.77
		c0.6,1.9401,0.42,4.03,0.51,6.0601c0.03,3.73,0.25,7.48,0.67,11.24c0.39,13.13,0.64,26.34,0.04,39.48
		c-0.4,2.64-0.67,5.52-0.77,8.27c-1.23,20.52-5.72,41.9399-18.1899,58.77c-6.2401,6.72-14.61,12.4299-23.96,13.23
		c-1.62-0.21-3.27-0.13-4.78,0.52c-1.66,0.71-3.46,0.38-5.13-0.01c-1.43-0.14-4.3-0.4301-5.73-0.5701
		c-17.17-1.4099-32.74-10.26-47.26-18.86c-12.75-9.5399-25.25-22.74-26.92-39.25c0.2-1.33,0.06-2.6599-0.55-3.8199
		c-0.72-3.59-0.85-7.47,0.01-11.03c0.6-1.2,0.73-2.54,0.55-3.83C747.41,1202.11,758.67,1184.28,770.03,1168.02z"/>
	<path fill="#D5898B" d="M7.24,1076.86c1.29,1.47,1.13,3.5,0.52,5.25C6.46,1080.63,6.63,1078.58,7.24,1076.86z"/>
	<path fill="#ED9DA1" d="M8.24,1084.88c1.33,1.45,1.13,3.5,0.47,5.23C7.47,1088.6,7.62,1086.59,8.24,1084.88z"/>
	<path fill="#1F1A17" d="M952.17,1084.91c40.93,35.27,82.9,72.6799,106.86,122.08c3.49,8.03,7.3199,16.3201,7.95,25.17
		c-0.2,1.2799-0.0599,2.63,0.5801,3.8199c1.6299,11.84-0.38,24.53-6.79,34.8c-14.99,23.4399-43.12,35.46-69.77,39.25
		c-4.38-0.0801-8.7-0.04-13.04-0.02c-27.83-2.3201-39.35-33.28-40.96-57.1801c0.2-1.3199,0.05-2.6499-0.54-3.8199
		c-0.11-0.75-0.32-2.24-0.43-2.99c-0.23-2.89-0.21-5.5701-0.61-8.34c-0.79-10.4601-0.57-20.9801-0.13-31.4301
		c0.25-3.17,0.66-6.15,0.79-9.27c0.1-0.77,0.28-2.3099,0.37-3.08c0.61-2.25,0.8-4.47,0.58-6.67c-0.13-2.1-0.2401-4.27,0.45-6.27
		c0.61-1.5299,0.69-3.1799,0.51-4.7799c0.14-4.0801,0.47-8.25,1.47-12.1901c0.59-1.2,0.72-2.54,0.56-3.8199
		c0.16-6.14,1.05-12.2201,2.49-18.17c0.53-1.22,0.67-2.5601,0.5-3.84C944.76,1120.24,949.35,1102.6899,952.17,1084.91z"/>
	<path fill="#D39193" d="M1806.2,1092.11c-0.62-1.4299-0.7-3.17,0.5901-4.23C1807.36,1089.27,1807.45,1091.02,1806.2,1092.11z"/>
	<path fill="#E19293" d="M10.24,1097.87c1.23,1.1,1.15,2.83,0.52,4.26C9.51,1101.01,9.62,1099.25,10.24,1097.87z"/>
	<path fill="#DD989E" d="M1723.16,1104.13c0.1699-1.5699,0.5-4.7,0.6599-6.27C1723.66,1099.4301,1723.33,1102.5601,1723.16,1104.13z
		"/>
	<path fill="#D08283" d="M1804.24,1107.12c-0.64-1.74-0.8-3.77,0.52-5.22C1805.35,1103.6,1805.53,1105.64,1804.24,1107.12z"/>
	<path fill="#EEA6A7" d="M97.18,1105.88c1.32,1.04,1.2,2.8199,0.58,4.24C96.55,1109,96.6,1107.28,97.18,1105.88z"/>
	<path fill="#D57C7F" d="M1722.17,1115.15c0.1699-1.5701,0.5-4.7101,0.6699-6.28C1722.67,1110.4399,1722.34,1113.58,1722.17,1115.15
		z"/>
	<path fill="#E4959A" d="M1803.27,1115.11c-0.67-1.74-0.85-3.78,0.49-5.23C1804.35,1111.59,1804.51,1113.61,1803.27,1115.11z"/>
	<path fill="#8C8C8A" d="M872,1117.16c1.83-0.17,1.64,2.98,0.54,3.83C871.92,1119.79,871.77,1118.45,872,1117.16z"/>
	<path fill="#D5938F" d="M1721.16,1122.09c-0.5801-1.4299-0.65-3.1899,0.6899-4.2
		C1722.37,1119.28,1722.4399,1121.04,1721.16,1122.09z"/>
	<path fill="#ED9D9D" d="M1801.16,1128.15c-0.5901-1.4501-0.62-3.15,0.59-4.27C1802.34,1125.27,1802.47,1127.08,1801.16,1128.15z"/>
	<path fill="#E8ADAC" d="M1800.25,1135.1c-0.65-1.74-0.8101-3.78,0.52-5.23C1801.35,1131.58,1801.52,1133.62,1800.25,1135.1z"/>
	<path fill="#A3A2A0" d="M873.99,1134.16c1.83-0.16,1.65,2.97,0.56,3.83C873.92,1136.8,873.77,1135.45,873.99,1134.16z"/>
	<path fill="#94908F" d="M942.51,1142c-1.18-0.83-1.38-4.02,0.5-3.84C943.18,1139.4399,943.04,1140.78,942.51,1142z"/>
	<path fill="#E58F92" d="M18.13,1141.91c1.39,0.98,1.25,2.7899,0.65,4.21C17.59,1145.01,17.59,1143.3101,18.13,1141.91z"/>
	<path fill="#DC9C97" d="M1798.22,1146.13c-0.64-1.4301-0.7-3.14,0.5-4.27C1799.35,1143.24,1799.48,1145.02,1798.22,1146.13z"/>
	<path fill="#848381" d="M874.94,1144.1899c2.27,0.28,1.8,4.3401,0.56,5.7201C875.36,1148.48,875.08,1145.62,874.94,1144.1899z"/>
	<path fill="#D59A93" d="M1717.25,1154.11c-0.65-1.73-0.8101-3.74,0.46-5.21C1718.35,1150.58,1718.55,1152.63,1717.25,1154.11z"/>
	<path fill="#72716F" d="M876.01,1157.1899c1.98,0.14,1.54,3.6201,0.51,4.77C875.9,1160.4301,875.79,1158.78,876.01,1157.1899z"/>
	<path fill="#72716F" d="M939.46,1163.99c-1.15-0.85-1.31-4.01,0.56-3.8199C940.18,1161.45,940.05,1162.79,939.46,1163.99z"/>
	<path fill="#949391" d="M877.03,1168.02c1.25,2.7999,1.47,6.54,0.67,11.24C877.28,1175.5,877.06,1171.75,877.03,1168.02z"/>
	<path fill="#959394" d="M937.48,1180.96c-1.06-1.1499-1.49-4.63,0.51-4.7799C938.17,1177.78,938.09,1179.4301,937.48,1180.96z"/>
	<path fill="#767271" d="M936.45,1193.9c-0.99-1.77-1.73-5.98,0.58-6.67C937.25,1189.4301,937.06,1191.65,936.45,1193.9z"/>
	<path fill="#B7B6B4" d="M935.29,1206.25c0.69-2.54-1.89-8.3101,0.79-9.27C935.95,1200.1,935.54,1203.08,935.29,1206.25z"/>
	<path fill="#E5969B" d="M1787.15,1203.1c-0.59-1.4399-0.6-3.15,0.64-4.22C1788.36,1200.26,1788.48,1202.0601,1787.15,1203.1z"/>
	<path fill="#9A9997" d="M876.97,1227.01c0.1-2.75,0.3701-5.63,0.77-8.27C877.46,1221.1899,879.32,1226.0699,876.97,1227.01z"/>
	<path fill="#878583" d="M744.46,1225.99c-1.13-0.86-1.3-4,0.55-3.83C745.19,1223.45,745.06,1224.79,744.46,1225.99z"/>
	<path fill="#A19D9C" d="M1066.98,1232.16c1.8301-0.1801,1.6801,2.96,0.5801,3.8199
		C1066.92,1234.79,1066.78,1233.4399,1066.98,1232.16z"/>
	<path fill="#868583" d="M744.45,1237.02c0.61,1.16,0.75,2.49,0.55,3.8199C743.16,1240.97,743.32,1237.83,744.45,1237.02z"/>
	<path fill="#A9A8A7" d="M935.42,1237.6801c0.4,2.7699,0.38,5.45,0.61,8.34C933.66,1245.03,935.46,1240.13,935.42,1237.6801z"/>
	<path fill="#777674" d="M936.46,1249.01c0.59,1.17,0.74,2.5,0.54,3.8199C935.15,1252.97,935.32,1249.8199,936.46,1249.01z"/>
	<path fill="#7A7977" d="M819.18,1298.95c1.43,0.14,4.3,0.4301,5.73,0.5701C823.53,1300.74,819.49,1301.1899,819.18,1298.95z"/>
	<path fill="#807D7B" d="M830.04,1299.53c1.51-0.65,3.16-0.73,4.78-0.52C834.65,1300.97,831.17,1300.55,830.04,1299.53z"/>
	<path fill="#7E7D7B" d="M977.96,1310.01c4.34-0.02,8.66-0.0601,13.04,0.02C989.3,1311.3101,979.96,1312.45,977.96,1310.01z"/>
	<path fill="#B34749" d="M1614.9301,1483.95c2.8999-6.9099,6.21-13.6499,9.96-20.1399
		C1623.16,1471.13,1619.55,1478.04,1614.9301,1483.95z"/>
	<path fill="#F3A9AA" d="M941.71,1720.64c7.73-1.47,15.74-0.73,23.53,0.1C957.38,1720.98,949.54,1721.08,941.71,1720.64z"/>
	<path fill="#B34A4B" d="M924.77,1723.76c5.53-1.62,11.25-2.3101,16.94-3.12c7.83,0.4399,15.67,0.34,23.53,0.1
		c6.01,0.84,11.97,1.98,17.96,3.0701C963.76,1721.63,944.2,1721.48,924.77,1723.76z"/>
	<path fill="#E1A0A2" d="M1115.87,1749.1801c1.5601,0.1599,4.7,0.48,6.27,0.6399
		C1120.5699,1749.66,1117.4301,1749.34,1115.87,1749.1801z"/>
	<path fill="#DA9692" d="M1254.85,1749.76c1.5801-0.13,4.73-0.39,6.3101-0.52C1259.58,1749.37,1256.4301,1749.63,1254.85,1749.76z"
		/>
	<path fill="#D69495" d="M1134.9399,1751.38c2.2101-1.45,4.5901-1.35,7.14,0.3099
		C1139.8199,1752.9399,1137.4399,1752.84,1134.9399,1751.38z"/>
	<path fill="#C5787D" d="M1237.89,1751.87c1.83-1.89,4.25-2.12,7.24-0.67C1243.1,1752.8101,1240.6899,1753.04,1237.89,1751.87z"/>
	<path fill="#F1A6A7" d="M1147.64,1752.25c3.85-0.03,7.71,0.13,11.6,0.47c-3.5-0.0399-6.8,0.39-10.23,0.3
		C1148.67,1752.83,1147.99,1752.4399,1147.64,1752.25z"/>
	<path fill="#E68E91" d="M1221.71,1752.63c3.49-0.8,6.9401-0.64,10.5601-0.39c-1.34,0.37-2.66,0.77-3.99,1.11
		C1226.0699,1753.12,1223.89,1752.85,1221.71,1752.63z"/>
	<path fill="#B03F3F" d="M1149.01,1753.02c3.4299,0.09,6.73-0.34,10.23-0.3c5.48,0.17,10.99,0.29,16.53,0.51
		c10.09,1.16,20.34,1.16,30.46,0c5.16-0.3199,10.28-0.39,15.48-0.6c2.1801,0.22,4.36,0.49,6.5701,0.72
		C1202.02,1756.1899,1175.1801,1755.5699,1149.01,1753.02z"/>
	<path fill="#EFAEAC" d="M1175.77,1753.23c10.14-0.46,20.29-0.25,30.46,0C1196.11,1754.39,1185.86,1754.39,1175.77,1753.23z"/>
	<path fill="#EDA0A2" d="M741.87,1774.78c1.08-1.29,2.84-1.2001,4.26-0.53C745,1775.4399,743.26,1775.36,741.87,1774.78z"/>
	<path fill="#E69597" d="M727.9,1776.76c1.44-1.35,3.49-1.16,5.21-0.46C731.61,1777.51,729.6,1777.35,727.9,1776.76z"/>
	<path fill="#E7ABA8" d="M617.94,1779.36c2.24-1.45,4.62-1.33,7.14,0.37C622.82,1780.9301,620.44,1780.8101,617.94,1779.36z"/>
	<path fill="#E49FA2" d="M698.91,1779.88c1.84-1.89,4.2401-2.13,7.21-0.73C704.17,1780.8199,701.77,1781.0699,698.91,1779.88z"/>
	<path fill="#FABFBB" d="M632.77,1780.23c5.08-0.33,10.21-0.4,15.23,0.79C642.92,1780.99,637.8,1780.76,632.77,1780.23z"/>
	<path fill="#F6B2B2" d="M678.9,1780.87c4-1.0599,8.2-0.66,12.3199-0.6801c-3.72,0.3601-7.43,0.7101-11.12,1.0601L678.9,1780.87z"/>
	<path fill="#BB6A66" d="M648,1781.02c10.3,0.02,20.59-0.02,30.9-0.15l1.2,0.38C669.53,1782.76,658.57,1782.37,648,1781.02z"/>
	<path fill="#DD7E7C" d="M944.7,1799.61c7.45-1.1799,15.06-0.77,22.54,0.12C959.71,1799.97,952.19,1800.02,944.7,1799.61z"/>
	<path fill="#DA8D90" d="M932.9,1800.72c1.46-1.27,3.46-1.13,5.18-0.49C936.64,1801.5601,934.58,1801.36,932.9,1800.72z"/>
	<path fill="#D5908C" d="M973.93,1800.3199c2.19-1.38,4.57-1.2799,7.15,0.3101C978.81,1801.96,976.43,1801.85,973.93,1800.3199z"/>
	<path fill="#D48C8E" d="M992.92,1802.27c1.67-0.6901,3.85-0.9301,5.08,0.73C996.27,1803.38,994.36,1803.42,992.92,1802.27z"/>
	<path fill="#EBA2A6" d="M998,1803c1.71-0.4301,3.61-0.4399,5.11,0.6899C1001.41,1804.36,999.22,1804.64,998,1803z"/>
	<path fill="#E09795" d="M1009.87,1805.2c1.4-0.62,3.14-0.6899,4.26,0.5801C1012.7,1806.36,1010.94,1806.45,1009.87,1805.2z"/>
	<path fill="#F1A1A1" d="M1069.88,1817.17c1.4-0.6001,3.12-0.64,4.25,0.59C1072.7,1818.35,1070.92,1818.47,1069.88,1817.17z"/>
	<path fill="#EB979A" d="M1081.87,1819.24c1.38-0.66,3.14-0.75,4.25,0.53C1084.7,1820.35,1082.96,1820.45,1081.87,1819.24z"/>
	<path fill="#EC9798" d="M1095.88,1821.23c1.39-0.63,3.2-0.76,4.25,0.61C1098.6899,1822.37,1096.98,1822.41,1095.88,1821.23z"/>
	<path fill="#EBAAA6" d="M1299.88,1821.8c1.05-1.3201,2.83-1.2101,4.25-0.55C1303,1822.4301,1301.27,1822.36,1299.88,1821.8z"/>
	<path fill="#E3A1A4" d="M1102.89,1822.23c1.7-0.63,3.73-0.79,5.21,0.51C1106.37,1823.35,1104.3199,1823.54,1102.89,1822.23z"/>
	<path fill="#D6918F" d="M1119.91,1824.27c1.6899-0.6801,3.74-0.85,5.1899,0.49C1123.38,1825.35,1121.37,1825.52,1119.91,1824.27z"
		/>
	<path fill="#F0A1A0" d="M1127.84,1825.1899c1.5701,0.16,4.7201,0.4701,6.29,0.63
		C1132.5601,1825.66,1129.41,1825.35,1127.84,1825.1899z"/>
	<path fill="#D58F8F" d="M1139.92,1826.29c2.2-1.3501,4.58-1.23,7.14,0.37C1144.75,1827.96,1142.38,1827.84,1139.92,1826.29z"/>
	<path fill="#DA9D97" d="M1258.88,1826.85c1.86-1.85,4.28-2.08,7.24-0.6899C1264.14,1827.83,1261.72,1828.0601,1258.88,1826.85z"/>
	<path fill="#EB9D9F" d="M1246.71,1827.63c2.8501-0.37,5.6001-0.41,8.5801-0.29C1252.46,1827.85,1249.46,1827.4399,1246.71,1827.63z
		"/>
	<path fill="#E29FA1" d="M1166.78,1828.25c4.39-0.13,8.77-0.3,13.21-0.24l0.02,1C1175.58,1828.98,1171.13,1828.62,1166.78,1828.25z"
		/>
	<path fill="#B15251" d="M1179.99,1828.01c18.76,0.0599,37.53-0.3101,56.29,0.3199c-4.6,0.9801-9.39,0.61-14,1.04
		c-12.17-0.51-24.35-0.6-36.5-0.17c-1.9301-0.11-3.86-0.1599-5.77-0.1899L1179.99,1828.01z"/>
	<path fill="#6E6C6A" d="M946.9,1829.7c1.49-1.1899,3.44-1.11,5.18-0.59C950.72,1830.6,948.59,1830.35,946.9,1829.7z"/>
	<path fill="#1F1A18" d="M952.08,1829.11c23.38-1.67,44.43,11.01,62.67,24.16c14.54,11.7,29.71,25.1,35.62,43.4299
		c-0.0699,2.76-0.13,5.5701-0.1899,8.4501c-6.1901,12.1699-24.03,14.22-34.2101,5.89c-8.84-5.11-15.02-17.63-26.62-15.88
		c-8,7.84-8.58,22.4099-21.7599,24.84h-8.52c-0.78-1.55-2.81-1.6801-4.06-0.7c-4.61-1.1001-9.75-2.7001-12.41-6.92
		c-4.86-10.23-16.15-15.12-26.5-17.88c-2.4-1.4301-4.49-1.4301-6.2599,0.01c-4.61,2.59-9.01,5.52-13.64,8.08
		c-1.51-1.39-3.83-1.36-5.35-0.0599c-8.25-3.0901-18.4-6-21.31-15.39c1.11-1.98,1-4.33-0.04-6.26c2.91-8.61,8.37-16.24,15.27-22.11
		c17.66-14.87,39.03-26.0601,62.13-29.0701C948.59,1830.35,950.72,1830.6,952.08,1829.11z"/>
	<path fill="#FFD4D4" d="M1185.78,1829.2c12.15-0.4299,24.33-0.34,36.5,0.17C1210.14,1830.37,1197.88,1830.46,1185.78,1829.2z"/>
	<path fill="#E09798" d="M765.86,1846.83c1.05-1.34,2.83-1.25,4.26-0.61C768.99,1847.4,767.27,1847.38,765.86,1846.83z"/>
	<path fill="#EB9B9D" d="M760.86,1847.83c1.08-1.2899,2.83-1.2699,4.28-0.6499C764.04,1848.41,762.28,1848.37,760.86,1847.83z"/>
	<path fill="#E3A4A1" d="M755.86,1848.84c1.08-1.2999,2.83-1.27,4.28-0.6699C759.05,1849.42,757.29,1849.36,755.86,1848.84z"/>
	<path fill="#F0A2A2" d="M749.88,1849.79c1.09-1.25,2.82-1.2201,4.26-0.64C753.08,1850.46,751.29,1850.35,749.88,1849.79z"/>
	<path fill="#D89695" d="M549.88,1850.21c1.41-0.63,3.19-0.72,4.26,0.63C552.7,1851.38,550.98,1851.4,549.88,1850.21z"/>
	<path fill="#EE989E" d="M554.86,1851.16c1.42-0.6,3.14-0.62,4.26,0.61C557.7,1852.35,555.91,1852.46,554.86,1851.16z"/>
	<path fill="#D3918E" d="M729.85,1852.8101c1.4301-1.41,3.52-1.2101,5.25-0.53C733.59,1853.47,731.58,1853.35,729.85,1852.8101z"/>
	<path fill="#F3AAA9" d="M723.91,1853.76c1.47-1.29,3.4901-1.16,5.2401-0.5701C727.7,1854.54,725.63,1854.35,723.91,1853.76z"/>
	<path fill="#D28F90" d="M714.92,1854.8c1.41-1.38,3.46-1.2101,5.18-0.5701C718.65,1855.52,716.63,1855.35,714.92,1854.8z"/>
	<path fill="#EDA4A3" d="M581.89,1855.2c1.39-0.62,3.16-0.71,4.22,0.62C584.69,1856.36,582.95,1856.4399,581.89,1855.2z"/>
	<path fill="#D59293" d="M695.89,1856.8199c1.04-1.3099,2.79-1.25,4.22-0.6399C699.05,1857.4399,697.29,1857.36,695.89,1856.8199z"
		/>
	<path fill="#FBB2B1" d="M600.94,1857.36c2.25-1.45,4.63-1.3199,7.14,0.38C605.82,1858.9301,603.44,1858.8,600.94,1857.36z"/>
	<path fill="#E3878C" d="M679.73,1857.72c3.43-1.09,6.99-0.6599,10.55-0.39C686.84,1858.28,683.2,1857.72,679.73,1857.72z"/>
	<path fill="#DE9D9E" d="M616.77,1858.24c5.07-0.24,10.13-0.3199,15.23-0.24v1.01C626.92,1859.13,621.81,1858.7,616.77,1858.24z"/>
	<path fill="#B66260" d="M632,1858c11.99-0.03,23.98-0.05,35.98,0.01l0.04,1.01c-12.01-0.01-24.02-0.0601-36.02-0.01V1858z"/>
	<path fill="#F3BABA" d="M667.98,1858.01c3.1,0.04,6.13,0.04,9.29,0.3c-2.99,0.9199-6.21,0.5299-9.25,0.71L667.98,1858.01z"/>
	<path fill="#A2A19F" d="M869.54,1887.14c-1.42-1.9-1.44-3.98-0.04-6.26C870.54,1882.8101,870.65,1885.16,869.54,1887.14z"/>
	<path fill="#959492" d="M909.84,1894.51c1.77-1.4401,3.86-1.4401,6.2599-0.01C914.14,1895.54,911.77,1895.67,909.84,1894.51z"/>
	<path fill="#C1C0BE" d="M1050.37,1896.7c1.0699,2.77,0.4401,5.5-0.1899,8.4501C1050.24,1902.27,1050.3,1899.46,1050.37,1896.7z"/>
	<path fill="#8A8687" d="M890.85,1902.53c1.52-1.3,3.84-1.3301,5.35,0.0599C894.86,1902.5699,892.18,1902.55,890.85,1902.53z"/>
	<path fill="#9A9492" d="M955.01,1919.3c1.25-0.9801,3.28-0.8501,4.06,0.7h-3.78L955.01,1919.3z"/>
</g>
</svg>
